<svg id="Camada_1" data-name="Camada 1" xmlns="http://www.w3.org/2000/svg" viewBox="0 0 985.31 696"><defs><style>.cls-1{fill:#fefefe;}.cls-2{fill:#c55053;}.cls-3{fill:#ea723f;}.cls-4{fill:#ea7341;}</style></defs><path class="cls-1" d="M550.09,1164.84q-242.54,0-485.08.16c-5.65,0-6.76-1.11-6.75-6.75q.27-341.25,0-682.5c0-5.64,1.1-6.75,6.75-6.75q485.91.25,971.8,0c5.65,0,6.76,1.1,6.76,6.75q-.28,341.25,0,682.5c0,5.64-1.11,6.76-6.76,6.75Q793.45,1164.7,550.09,1164.84Z" transform="translate(-58.26 -469)"/><path class="cls-2" d="M350.41,726.15c6.11.32,8.06,4.68,9.68,9.63q18.18,55.9,36.48,111.76,20.78,63.71,41.5,127.41c3.59,11,2.55,16.34-3.8,18.32-6.57,2.06-10.33-1.18-13.95-12.29q-38.94-119.61-77.84-239.22C339.44,732.4,342.78,725.94,350.41,726.15Z" transform="translate(-58.26 -469)"/><path class="cls-2" d="M456,993.6c-6.08.09-9.5-2.09-10.6-6.58-1.39-5.65,1.26-9.55,6.61-11.62q21.09-8.13,42.21-16.22,88-33.58,176-67.09c2.78-1.06,5.74-2.31,8.62-2.31,4.62,0,7.8,3,8.6,7.46.94,5.32-1.74,8.86-6.75,10.78-20.74,8-41.44,16-62.18,23.91Q540.9,961.57,463.3,991.15C460.5,992.22,457.62,993.06,456,993.6Z" transform="translate(-58.26 -469)"/><path class="cls-2" d="M733.88,826.08c-3.46-.22-6-1.78-8.56-3.47q-70.86-46.68-141.75-93.31c-5-3.29-9.82-6.76-6.63-13.89,2.77-6.18,8.57-7.1,15.87-2.33q46.19,30.23,92.28,60.6,26.16,17.19,52.31,34.38c4.4,2.88,6.56,6.55,4.94,11.83C741,824.17,737.7,825.73,733.88,826.08Z" transform="translate(-58.26 -469)"/><path class="cls-2" d="M554.31,695.26c-29.42,0-58.83-.06-88.25,0-6.62,0-12.47-.69-12.83-9-.27-6.26,4-9.39,12.63-9.39q88.25,0,176.5,0c.28,0,.55,0,.83,0,6.64-.35,11.91,1.88,12,9.19s-5,9.31-11.78,9.27C613.7,695.16,584,695.26,554.31,695.26Z" transform="translate(-58.26 -469)"/><path class="cls-2" d="M416.48,695.26c-5.21-.07-8.28-1.87-9.55-6.16-1.34-4.46-.08-8.11,3.71-10.79,6.27-4.43,12.59-8.79,18.9-13.17l119.6-83.06c.91-.62,1.79-1.27,2.72-1.86,4.91-3.12,9.69-2.75,13.1,1.91,3.7,5.07,2.29,10-2.67,13.56-6.44,4.68-13,9.16-19.54,13.7Q484,650.19,425.12,691C422.23,693,419.54,695.57,416.48,695.26Z" transform="translate(-58.26 -469)"/><path class="cls-2" d="M539,735.84l-115.76-8.65q-18.48-1.38-37-2.73c-9.08-.66-13.14-4.1-12.53-10.65.59-6.37,5.41-8.82,14.42-8.11q59.5,4.68,119,9.08c10.94.83,21.9,1.5,32.85,2.38,6.38.51,11.54,2.76,10.8,10.46C550.16,734.72,545.08,736.21,539,735.84Z" transform="translate(-58.26 -469)"/><path class="cls-3" d="M526.22,829.39c0,22.21,0,44.42,0,66.63,0,6.39-1.15,11.77-9.06,11.84-7.74.06-9.41-4.92-9.4-11.52q.1-67.44,0-134.9c0-6.84,2.29-11.63,9.5-11.6,6.9,0,9,5,9,11.28C526.18,783.88,526.22,806.63,526.22,829.39Z" transform="translate(-58.26 -469)"/><path class="cls-2" d="M687.35,990.06c-8.81,0-12.35-5.94-9.77-14.19q11.79-37.61,23.77-75.14,7.46-23.47,15-46.9c2.62-8,7.09-11.07,13.07-8.67,7,2.79,6.71,8.18,4.72,14.37Q714.87,919.71,695.83,980C694.18,985.19,692.22,989.88,687.35,990.06Z" transform="translate(-58.26 -469)"/><path class="cls-2" d="M746.29,784.76c-2.83-.21-5.21-1.53-7.59-2.93q-48.51-28.62-97-57.2c-7.13-4.22-9.37-9.46-6.36-14.55s8.65-5.78,15.76-1.6Q700,737.21,748.89,766c5.09,3,8,6.74,6.25,12.73C753.91,783,750.44,784.49,746.29,784.76Z" transform="translate(-58.26 -469)"/><path class="cls-2" d="M455.21,886.59c-.16,4.75-2.21,7.57-5.84,8.95s-7.21.91-9.79-2.15a33.55,33.55,0,0,1-4.25-7q-21.12-43.26-42.11-86.57c-.48-1-.91-2-1.34-3-2.39-5.64-1.48-10.35,4.35-13.1,5.6-2.64,9.92-.07,12.32,4.83,15.34,31.27,30.46,62.65,45.6,94A18.28,18.28,0,0,1,455.21,886.59Z" transform="translate(-58.26 -469)"/><path class="cls-2" d="M591.15,993.65c-16.78,0-33.55-.1-50.32,0-6.62.06-11.84-1.64-11.65-9.3.19-7.47,5.43-9.19,12-9.17q51.15.13,102.28,0c6.74,0,11.78,2.18,11.69,9.48s-5.37,9.11-12,9C625.79,993.5,608.47,993.65,591.15,993.65Z" transform="translate(-58.26 -469)"/><path class="cls-2" d="M756.91,749.67c-2.08.18-4.39-1.23-6.7-2.81q-37.66-25.9-75.34-51.79c-7.3-5-7.49-13.74-.61-17.16,3.91-2,7.32-.85,10.75,1.51q38,26.12,76.12,52.11c4.19,2.87,7,6.45,5.28,11.77C765.14,747.35,762.15,749.56,756.91,749.67Z" transform="translate(-58.26 -469)"/><path class="cls-2" d="M389.69,733.65a11,11,0,0,1,8.53,4q28.44,31.46,57,62.83c4.19,4.63,5.55,10.1.45,14.52-4.84,4.19-9.91,3-14.35-1.94q-28.08-31.22-56.43-62.2c-3.15-3.47-5.07-7.17-3-11.93A8.48,8.48,0,0,1,389.69,733.65Z" transform="translate(-58.26 -469)"/><path class="cls-2" d="M453.28,961.11c-5.59-.09-10.09-6.34-7.47-12.89,10.47-26.16,21.28-52.18,32.1-78.21,2.44-5.88,7.36-7.52,12.85-5,5.22,2.46,6.32,7.08,4.09,12.5q-15.78,38.33-31.43,76.71C461.67,958.58,458.73,960.85,453.28,961.11Z" transform="translate(-58.26 -469)"/><path class="cls-2" d="M683.42,815.67c-.18,5.22-2.49,8-6,10.14q-34,20.81-68,41.74c-5.2,3.2-10.24,3-13.74-2.17-3.89-5.77-1.29-10.51,4.06-13.82,22.87-14.14,45.72-28.28,68.74-42.17C675.49,805.13,683.4,809.25,683.42,815.67Z" transform="translate(-58.26 -469)"/><path class="cls-2" d="M523.24,653c-4.92-.13-8.77-2.46-9.43-8-.76-6.33,3-9.68,8.83-10.82,14.51-2.87,29.05-5.58,43.58-8.35,10.77-2.06,21.52-4.14,32.29-6.17,6.19-1.17,12.46-2,14.86,5.9,1.92,6.33-1.64,10.43-10.62,12.21-24.73,4.87-49.48,9.58-74.23,14.34C526.91,652.45,525.27,652.66,523.24,653Z" transform="translate(-58.26 -469)"/><path class="cls-2" d="M601.13,966.89c-7.74.42-11.36-2.33-12.15-7.59-.86-5.75,2.33-9.3,8-10.58l57.74-13.07c4.55-1,9-2.34,13.64-3,5.38-.83,9.19,1.76,10.64,6.9,1.4,5-.85,9.45-5.47,10.59C648.76,956.16,623.87,961.67,601.13,966.89Z" transform="translate(-58.26 -469)"/><path class="cls-4" d="M564.76,749.64c8.78,0,17.55,0,26.33,0,6.28,0,10.18,3.24,10.29,9.28.1,5.67-3.86,9.33-9.45,9.42q-26.73.4-53.46-.08c-5.92-.11-9.89-3.57-9.3-10.09.53-5.9,4.33-8.52,10.09-8.53Z" transform="translate(-58.26 -469)"/><path class="cls-2" d="M490.08,772.64c.06,6.29-6.14,11.71-11.57,8.87-17.69-9.26-35.09-19.09-52.29-29.24-4.48-2.65-5-7.88-1.89-12.33,3.41-4.82,8.18-5.08,13.11-2.33q23.65,13.2,47.25,26.54a20.19,20.19,0,0,1,2.06,1.34C489.2,767.25,490,769.76,490.08,772.64Z" transform="translate(-58.26 -469)"/><path class="cls-2" d="M704.39,841.74c.26,3.68-2,6.25-4.92,8.58q-20.22,16.17-40.35,32.46c-4.9,4-9.81,5.1-14.6.3-4.12-4.13-3-10.11,2.8-14.85,13.59-11.08,27.32-22,41-33,3.47-2.79,7.08-4.12,11.34-1.82C702.81,835.12,704.4,837.78,704.39,841.74Z" transform="translate(-58.26 -469)"/><path class="cls-3" d="M567.08,907.91c-8.22,0-16.44,0-24.67,0-6,0-9.49-2.94-9.69-8.75s3.5-9.39,9.16-9.48c16.71-.29,33.43-.27,50.15,0,5.68.09,9.53,3.63,9.33,9.36-.22,6.06-4,9.12-10.44,8.94C583,907.74,575,907.91,567.08,907.91Z" transform="translate(-58.26 -469)"/><path class="cls-2" d="M453.14,838.07c-.25-2.74,1.43-5.12,3.65-7.35q13.06-13.14,26-26.39c4.44-4.54,9.65-6.23,14.47-1.64,5.21,4.95,3.47,10.24-1.34,15-9,8.88-17.75,18-26.67,26.9-2.95,2.95-6.46,4.07-10.51,2.36C455.1,845.41,453.24,842.62,453.14,838.07Z" transform="translate(-58.26 -469)"/><path class="cls-2" d="M631.66,781a9,9,0,0,1-1.65,5.38c-4.94,7.2-9.74,14.49-14.79,21.62-3.32,4.68-8,5.91-12.89,2.91-5.16-3.15-5.38-8.36-2.65-12.92,4.61-7.71,9.9-15,15.14-22.36a8.82,8.82,0,0,1,10.87-3.37C629.79,773.65,631.75,776.62,631.66,781Z" transform="translate(-58.26 -469)"/><path class="cls-2" d="M498.2,943.32c-5.45-.4-9.11-2.06-10.15-6.76s-.21-9.33,4.84-10.82c9.66-2.87,19.47-5.31,29.36-7.22,4.78-.92,8.57,1.89,9.72,6.84s-.63,9.07-5.44,10.53C516.89,938.8,507.05,941,498.2,943.32Z" transform="translate(-58.26 -469)"/><path class="cls-2" d="M626.84,661.57c.15,6.15-4.19,10.29-10.74,9.1C607,669,598,666.74,589,664.35c-5.22-1.39-7.75-5.39-6.6-10.67,1.22-5.65,5.27-8.28,11-7.08,8.82,1.84,17.6,3.91,26.33,6.14C624.11,653.85,626.82,656.73,626.84,661.57Z" transform="translate(-58.26 -469)"/><path class="cls-3" d="M552.56,838.35c-3.56,0-7.15.25-10.68-.06-5.68-.49-9.34-3.63-9.17-9.5s3.57-8.85,9.62-8.76c7.12.11,14.25.08,21.37,0,5.74-.06,8.81,3.14,9.18,8.39s-2.65,9-8,9.68c-4,.52-8.2.11-12.3.11Z" transform="translate(-58.26 -469)"/></svg>
