<?xml version="1.0" encoding="utf-8"?>
<!-- Generator: Adobe Illustrator 25.0.0, SVG Export Plug-In . SVG Version: 6.00 Build 0)  -->
<svg version="1.1" id="Layer_1" xmlns="http://www.w3.org/2000/svg" xmlns:xlink="http://www.w3.org/1999/xlink" x="0px" y="0px"
	 viewBox="0 0 511 511" style="enable-background:new 0 0 511 511;" xml:space="preserve">
<style type="text/css">
	.st0{fill:#303030;}
	.st1{fill:#EE915A;}
	.st2{fill:#E75626;}
</style>
<g>
	<path class="st0" d="M254,511c-7.5-9.5-16.4-17.8-24.5-26.8c-43.9-48.8-84.7-99.8-118.2-156.4C93,296.9,77,264.9,69.1,229.6
		c-11.2-50.2-1.7-97.1,26-139.9c32-49.5,78.1-78.6,136.5-86.1c55.2-7.1,105,7.5,147.9,43.5c35.4,29.7,56.9,67.8,65.1,113.2
		c6,33.4,1.7,65.9-10.1,97.6c-14.4,38.7-34.9,74-57.9,107.9c-33.2,48.7-70.6,93.9-111.1,136.7c-2.6,2.7-5.7,5.1-7.5,8.6
		C256.7,511,255.3,511,254,511z M255.7,320.3c68.8,1.2,125.9-55.2,127.6-123.8c1.7-70.3-54.7-129-124.1-130.6
		c-73.4-1.7-130.6,59.1-130.5,127.4C128.8,264,187.5,321.4,255.7,320.3z"/>
	<path class="st1" d="M187.8,175c4.9,3.9,9.9,7.8,16.4,9c16,3,29.3-3.8,36.2-18.7c0.7-1.5,1.3-3,2-4.6c4.1,2.6,8.3,5,13.5,4.4
		c0,22.6,0,45.1,0,67.7c-23.5,0.1-47.1,0.2-70.6,0.2c-9.4-16.4-13.4-34.4-15.4-52.9C176.5,180.8,182.5,179.2,187.8,175z"/>
	<path class="st2" d="M255.9,232.9c0-22.6,0-45.1,0-67.7l0.2-0.2c5.1,0.6,9.3-1.6,13.1-4.7c5.3,18.2,19.5,24.8,31.8,24.5
		c8.7-0.2,16-3.9,22.3-9.8c5.5,4.4,11.8,5.9,18.7,5c-2.2,13.8-4.5,27.5-9.7,40.6c-1.7,4.4-3.7,8.5-6.3,12.4c-23.3,0-46.7,0-70,0
		L255.9,232.9z"/>
	<path class="st2" d="M185.2,233.1c23.5-0.1,47.1-0.2,70.6-0.2l0.1,0.1c0,7.9,0,15.8,0,23.7c-21.1,0.1-42.2,0.2-63.3,0.1
		c-5.1,0-7.6-2.7-7.6-7.8C185.1,243.7,185.2,238.4,185.2,233.1z"/>
	<path class="st1" d="M256,256.7c0-7.9,0-15.8,0-23.7c23.3,0,46.7,0,70,0c0,5.6,0.2,11.3,0.1,16.9c0,4.4-2.5,6.9-6.8,6.9
		C298.2,256.9,277.1,256.8,256,256.7z"/>
	<path class="st2" d="M187.8,175c-5.3,4.2-11.3,5.8-18,5.2c-9.7-2.9-17-12.3-15.7-20.4c1.7-10.9,10.1-18.1,20.6-17.8
		c14.2,0.5,23,16.5,15.7,28.8C189.6,172.2,188.7,173.6,187.8,175z"/>
	<path class="st1" d="M342,180c-6.9,0.9-13.2-0.6-18.7-5c-2.8-5.4-6.2-10.6-4.6-17.3c2.3-9.7,9.6-15.8,19.1-15.8
		c9.3,0.1,17,6.7,18.9,16.1c1.7,8.2-3.8,17.6-12.4,21.2C343.6,179.6,342.8,179.8,342,180z"/>
	<path class="st2" d="M255.8,165.2c-5.2,0.6-9.4-1.8-13.5-4.4c-3.7-5.3-7.1-10.7-5.6-17.8c2.1-9.7,9.2-15.8,19.3-15.9
		c0,12.6,0,25.2,0,37.8L255.8,165.2z"/>
	<path class="st1" d="M256,165c0-12.6,0-25.2,0-37.8c8.1,0.2,13.9,4,17.2,11.2c3.8,8.2,1.7,15.4-4,22
		C265.3,163.4,261.2,165.6,256,165z"/>
</g>
</svg>
