<?xml version="1.0" encoding="utf-8"?>
<!-- Generator: Adobe Illustrator 25.0.0, SVG Export Plug-In . SVG Version: 6.00 Build 0)  -->
<svg version="1.1" id="Layer_1" xmlns="http://www.w3.org/2000/svg" xmlns:xlink="http://www.w3.org/1999/xlink" x="0px" y="0px"
	 viewBox="0 0 511 1022" style="enable-background:new 0 0 511 1022;" xml:space="preserve">
<style type="text/css">
	.st0{fill:#303030;}
	.st1{fill:#FEFEFE;}
	.st2{fill:#EE915A;}
	.st3{fill:#E75626;}
</style>
<g>
	<path class="st0" d="M254,619.2c-7.5-9.5-16.4-17.8-24.5-26.8c-43.9-48.8-84.7-99.8-118.2-156.4C93,405.1,77,373.1,69.1,337.9
		c-11.2-50.2-1.7-97.1,26-139.9c32-49.5,78.1-78.6,136.5-86.1c55.2-7.1,105,7.5,147.9,43.5c35.4,29.7,56.9,67.8,65.1,113.2
		c6,33.4,1.7,65.9-10.1,97.6c-14.4,38.7-34.9,74-57.9,107.9C343.4,522.8,306,568,265.5,610.8c-2.6,2.7-5.7,5.1-7.5,8.6
		C256.7,619.2,255.3,619.2,254,619.2z M255.7,428.5c68.8,1.2,125.9-55.2,127.6-123.8c1.7-70.3-54.7-129-124.1-130.6
		c-73.4-1.7-130.6,59.1-130.5,127.4C128.8,372.2,187.5,429.6,255.7,428.5z"/>
	<path class="st1" d="M255.7,428.5c-68.2,1-126.9-56.3-127-127c-0.2-68.3,57.1-129,130.5-127.4c69.5,1.6,125.8,60.3,124.1,130.6
		C381.6,373.4,324.5,429.9,255.7,428.5z M256,235.4c-10,0.1-17.2,6.2-19.3,15.9c-1.5,7.1,1.9,12.5,5.6,17.8c-0.7,1.5-1.3,3.1-2,4.6
		c-6.9,14.8-20.2,21.7-36.2,18.7c-6.5-1.2-11.4-5.1-16.4-9c0.9-1.4,1.8-2.8,2.6-4.2c7.3-12.3-1.4-28.3-15.7-28.8
		c-10.5-0.4-18.9,6.9-20.6,17.8c-1.3,8.1,6,17.5,15.7,20.4c2,18.6,6,36.5,15.4,52.9c0,5.3-0.2,10.6-0.1,15.9
		c0.1,5.1,2.5,7.8,7.6,7.8c21.1,0,42.2-0.1,63.3-0.1c21.1,0.1,42.2,0.2,63.3,0.2c4.3,0,6.8-2.5,6.8-6.9c0-5.6-0.1-11.3-0.1-16.9
		c2.6-3.9,4.6-8.1,6.3-12.4c5.2-13.1,7.5-26.8,9.7-40.6c0.8-0.2,1.6-0.4,2.4-0.7c8.6-3.6,14.1-13,12.4-21.2
		c-1.9-9.5-9.7-16.1-18.9-16.1c-9.5-0.1-16.8,6.1-19.1,15.8c-1.6,6.7,1.8,11.9,4.6,17.3c-6.3,5.9-13.6,9.7-22.3,9.8
		c-12.3,0.3-26.5-6.3-31.8-24.5c5.8-6.5,7.8-13.8,4-22C269.9,239.4,264,235.6,256,235.4z"/>
	<path class="st2" d="M187.8,283.2c4.9,3.9,9.9,7.8,16.4,9c16,3,29.3-3.8,36.2-18.7c0.7-1.5,1.3-3,2-4.6c4.1,2.6,8.3,5,13.5,4.4
		c0,22.6,0,45.1,0,67.7c-23.5,0.1-47.1,0.2-70.6,0.2c-9.4-16.4-13.4-34.4-15.4-52.9C176.5,289,182.5,287.4,187.8,283.2z"/>
	<path class="st3" d="M255.9,341.1c0-22.6,0-45.1,0-67.7l0.2-0.2c5.1,0.6,9.3-1.6,13.1-4.7c5.3,18.2,19.5,24.8,31.8,24.5
		c8.7-0.2,16-3.9,22.3-9.8c5.5,4.4,11.8,5.9,18.7,5c-2.2,13.8-4.5,27.5-9.7,40.6c-1.7,4.4-3.7,8.5-6.3,12.4c-23.3,0-46.7,0-70,0
		L255.9,341.1z"/>
	<path class="st3" d="M185.2,341.4c23.5-0.1,47.1-0.2,70.6-0.2l0.1,0.1c0,7.9,0,15.8,0,23.7c-21.1,0.1-42.2,0.2-63.3,0.1
		c-5.1,0-7.6-2.7-7.6-7.8C185.1,351.9,185.2,346.6,185.2,341.4z"/>
	<path class="st2" d="M256,365c0-7.9,0-15.8,0-23.7c23.3,0,46.7,0,70,0c0,5.6,0.2,11.3,0.1,16.9c0,4.4-2.5,6.9-6.8,6.9
		C298.2,365.1,277.1,365,256,365z"/>
	<path class="st3" d="M187.8,283.2c-5.3,4.2-11.3,5.8-18,5.2c-9.7-2.9-17-12.3-15.7-20.4c1.7-10.9,10.1-18.1,20.6-17.8
		c14.2,0.5,23,16.5,15.7,28.8C189.6,280.4,188.7,281.9,187.8,283.2z"/>
	<path class="st2" d="M342,288.2c-6.9,0.9-13.2-0.6-18.7-5c-2.8-5.4-6.2-10.6-4.6-17.3c2.3-9.7,9.6-15.8,19.1-15.8
		c9.3,0.1,17,6.7,18.9,16.1c1.7,8.2-3.8,17.6-12.4,21.2C343.6,287.9,342.8,288,342,288.2z"/>
	<path class="st3" d="M255.8,273.4c-5.2,0.6-9.4-1.8-13.5-4.4c-3.7-5.3-7.1-10.7-5.6-17.8c2.1-9.7,9.2-15.8,19.3-15.9
		c0,12.6,0,25.2,0,37.8L255.8,273.4z"/>
	<path class="st2" d="M256,273.2c0-12.6,0-25.2,0-37.8c8.1,0.2,13.9,4,17.2,11.2c3.8,8.2,1.7,15.4-4,22
		C265.3,271.6,261.2,273.9,256,273.2z"/>
</g>
</svg>
