<?xml version="1.0" encoding="utf-8"?>
<!-- Generator: Adobe Illustrator 25.0.0, SVG Export Plug-In . SVG Version: 6.00 Build 0)  -->
<svg version="1.1" id="Layer_1" xmlns="http://www.w3.org/2000/svg" xmlns:xlink="http://www.w3.org/1999/xlink" x="0px" y="0px"
	 viewBox="0 0 511 1022" style="enable-background:new 0 0 511 1022;" xml:space="preserve">
<style type="text/css">
	.st0{fill:#EE915A;}
	.st1{fill:#FAFAF9;}
	.st2{fill:#F2F2F2;}
	.st3{fill:#FEFCFB;}
	.st4{fill:#EDEDED;}
	.st5{fill:#C55053;}
	.st6{fill:#EA723F;}
	.st7{fill:#EA7341;}
</style>
<g>
	<path class="st0" d="M447,189.3c0.7,33.1-8.6,61.1-20.5,88.4c-17.8,41-42,78.2-68.3,114.1c-29.8,40.8-62.6,79.1-97.5,115.6
		c-4.6,4.8-4.8,4.8-9.3,0.1c-56.6-59.9-108.9-123.3-149-195.7c-15.1-27.3-27.9-55.7-34.1-86.5c-8.6-43-1.8-84,19.1-122.2
		c31.4-57.3,80-91.3,144.7-99.5C336.7-9.7,426.2,61.8,444,157.8C446.1,169.1,447.4,180.5,447,189.3z M383.1,193.6
		c1.2-67.7-54.5-126-123.9-127.6c-72.9-1.7-130.9,58.9-130.4,127.4c0.5,69.7,56.7,127.3,125.5,127.3
		C326.5,320.7,383.1,264.9,383.1,193.6z"/>
	<path class="st1" d="M383.1,193.6c0,71.3-56.6,127.1-128.9,127.1c-68.7,0-125-57.6-125.5-127.3C128.2,124.8,186.3,64.2,259.2,66
		C328.6,67.6,384.3,125.9,383.1,193.6z M256,287c11.7,0,23.3,0.1,35,0c12.5-0.2,23.2-6.7,25.6-20.4c0.7-4.2,1.3-8.5,1.3-12.8
		c0.2-14.7,0.1-29.3,0-44c0-4.7,1.3-8,6.2-9.4c3.1-0.9,6.1-2.4,8.7-4.7c6.7-5.9,13.3-12,19-18.9c9.5-11.4,9.4-25.9-1.1-36.3
		c-11.2-11.2-22.8-22-33.4-33.7c-10.8-12-36.1-12.2-46.2-4.4c-10.1,7.9-19.8,8.1-30.4,0.4c-12.2-8.8-34.6-7-44.8,2.4
		c-8.3,7.7-16.1,15.8-24.3,23.7c-5.5,5.3-11.1,10.5-15.3,17c-5.3,8.2-5,20.4,0.8,28.1c5.5,7.4,12.5,13.4,19,19.8
		c2.9,2.8,6.4,5.2,10.5,6.5c5,1.6,7.3,5.2,7.2,10.6c-0.2,16.2-0.5,32.3,0.1,48.5c0.7,18,8.7,27.5,27.9,27.7
		C233.3,287.1,244.7,287,256,287z"/>
	<path class="st2" d="M256,287c-11.3,0-22.7,0.1-34,0c-19.2-0.2-27.2-9.8-27.9-27.7c-0.6-16.1-0.2-32.3-0.1-48.5
		c0.1-5.4-2.2-9-7.2-10.6c-4.1-1.3-7.6-3.7-10.5-6.5c-6.5-6.4-13.4-12.4-19-19.8c-5.8-7.7-6.1-19.9-0.8-28.1
		c4.2-6.5,9.8-11.7,15.3-17c8.1-7.9,16-16,24.3-23.7c10.1-9.4,32.6-11.2,44.8-2.4c10.5,7.7,20.2,7.5,30.4-0.4
		c10-7.8,35.3-7.6,46.2,4.4c10.6,11.7,22.3,22.5,33.4,33.7c10.4,10.5,10.6,24.9,1.1,36.3c-5.8,6.9-12.3,13-19,18.9
		c-2.6,2.2-5.6,3.7-8.7,4.7c-4.9,1.5-6.2,4.7-6.2,9.4c0.1,14.7,0.1,29.3,0,44c0,4.3-0.6,8.6-1.3,12.8c-2.4,13.7-13.1,20.2-25.6,20.4
		C279.3,287.2,267.7,287,256,287z M255.9,282c12.3,0,24.7,0,37,0c13.4,0,19.1-5.7,19.1-19.2c0-20.5,0-41,0-61.5
		c0-2.6-0.1-4.2,3.7-3.6c4.6,0.7,9.1-0.8,12.6-4.5c7.1-7.3,14.3-14.4,21.5-21.6c7.2-7.3,7.2-18.1,0-25.4
		c-10.4-10.4-20.7-20.8-31.1-31.1c-14.5-14.4-10.2-13.1-31.6-13.3c-6.8-0.1-12.4,1.7-16.6,7.2c-2.7,3.5-6.2,5.4-10.5,5.7
		c-6.9,0.5-14,0.9-18.6-5.5c-3.8-5.3-8.6-7.5-14.9-7.3c-4.5,0.1-9-0.1-13.5,0.1c-3.3,0.1-6.7,0.3-9.3,2.8
		c-14.4,14.3-28.9,28.6-43.1,43.2c-6.4,6.6-6,14.7-0.2,22c3.2,4.1,7.8,6.9,10.8,10.9c4.1,5.6,10,9.2,14.7,14.1
		c2.2,2.3,5.6,3.5,8.8,2.8c4.2-0.9,4.5,0.8,4.5,4.2c-0.1,20.2-0.1,40.3-0.1,60.5c0,12.7,6.8,19.4,19.4,19.4
		C230.9,282,243.4,282,255.9,282z"/>
	<path class="st3" d="M255.9,282c-12.5,0-25,0-37.5,0c-12.6,0-19.3-6.7-19.4-19.4c-0.1-20.2-0.1-40.3,0.1-60.5
		c0-3.5-0.3-5.1-4.5-4.2c-3.1,0.7-6.6-0.5-8.8-2.8c-4.7-4.9-10.6-8.5-14.7-14.1c-3-4-7.5-6.8-10.8-10.9c-5.7-7.3-6.2-15.4,0.2-22
		c14.2-14.5,28.7-28.8,43.1-43.2c2.5-2.5,6-2.7,9.3-2.8c4.5-0.1,9,0.1,13.5-0.1c6.3-0.2,11.1,2,14.9,7.3c4.6,6.4,11.7,6,18.6,5.5
		c4.3-0.3,7.8-2.2,10.5-5.7c4.2-5.5,9.8-7.3,16.6-7.2c21.4,0.2,17.1-1.1,31.6,13.3c10.4,10.3,20.8,20.7,31.1,31.1
		c7.3,7.3,7.3,18.1,0,25.4c-7.2,7.2-14.5,14.3-21.5,21.6c-3.6,3.7-8,5.2-12.6,4.5c-3.8-0.6-3.7,1-3.7,3.6c0,20.5,0,41,0,61.5
		c0,13.5-5.6,19.2-19.1,19.2C280.6,282,268.2,282,255.9,282z M206.1,183.8c0,2.8,0,4.4,0,6c0,24.1,0,48.3,0,72.4
		c0,9.4,3.5,12.8,12.9,12.8c24.3,0,48.6,0,72.9,0c10.4,0,13.2-2.8,13.2-13.3c0-24.3,0-48.6,0-72.9c0-1.4-0.9-3.3,0.8-3.9
		c0.7-0.2,2.1,1.4,3,2.2c6,5.6,10,5.6,15.8-0.2c6.3-6.4,12.7-12.7,19-19.1c6-6.2,5.9-11.5-0.2-17.6c-10-10-20.6-19.4-29.8-30.1
		c-7.4-8.6-15.5-12.5-26.8-11.2c-4.8,0.5-8.5,1.2-11.6,5.2c-8.1,10.5-29.7,10.7-37,2c-5.8-6.9-12.3-7.4-19.9-7c-2,0.1-4,0.1-6,0
		c-2.1-0.1-3.9,0.5-5.4,2c-13.7,13.8-27.5,27.4-41.2,41.3c-4.2,4.3-4.4,9.1-0.3,13.3c7.6,7.9,15.4,15.6,23.3,23.2
		c3.4,3.3,8.1,3,11.8-0.1C202.3,187.5,203.7,186.1,206.1,183.8z"/>
	<path class="st0" d="M206.1,183.8c-2.4,2.3-3.9,3.7-5.4,5c-3.6,3.1-8.4,3.3-11.8,0.1c-7.9-7.6-15.7-15.3-23.3-23.2
		c-4-4.2-3.9-8.9,0.3-13.3c13.6-13.9,27.4-27.5,41.2-41.3c1.5-1.5,3.3-2.1,5.4-2c2,0.1,4,0.1,6,0c7.6-0.4,14.1,0.1,19.9,7
		c7.3,8.7,28.9,8.5,37-2c3.1-4,6.8-4.6,11.6-5.2c11.3-1.3,19.4,2.6,26.8,11.2c9.2,10.7,19.8,20.1,29.8,30.1
		c6.1,6.1,6.2,11.4,0.2,17.6c-6.3,6.4-12.7,12.7-19,19.1c-5.8,5.8-9.8,5.8-15.8,0.2c-1-0.9-2.4-2.5-3-2.2c-1.7,0.6-0.8,2.6-0.8,3.9
		c-0.1,24.3,0,48.6,0,72.9c0,10.5-2.8,13.3-13.2,13.3c-24.3,0-48.6,0-72.9,0c-9.4,0-12.9-3.4-12.9-12.8c0-24.1,0-48.3,0-72.4
		C206.1,188.2,206.1,186.6,206.1,183.8z M277,183.7c1.4-5.1-4.4-4.6-5.9-7.5c1.3-0.7,2.5-1.6,3.9-2.2c4.9-2.1,5.1-5.6,3-9.9
		c-0.3-0.2-0.6-0.5-0.9-0.7c1.6-1.9-0.3-2.2-1.3-2.7c-4.8-2.9-9.9-5.3-14.5-8.5c-4.5-3.2-8.3-2.9-12.2,0.8c-0.1,0.5-0.1,0.9-0.2,1.4
		c-6.2,0.7-10.9,4.6-15.6,8.3c0,0,0.3,0.5,0.5,0.7c0,0.5,0,0.9,0,1.4c-2.3-0.9-2,0.8-2,2c0,4.8,0,9.5,0.1,14.3c0,0.7,0,1.5,0,2.2
		c0.5,2.7-1.7,6.1,1.8,8.2c6.2,3.6,12.4,7.1,18.5,10.7c2.6,1.5,2.6-0.1,2.6-2c-0.1-4.6-0.1-9.3-0.2-13.9c0.6-0.1,1.1-0.2,1.7-0.3
		c-0.1,3.4-0.4,6.9-0.2,10.3c0.1,2.2-1.2,5.5,0.8,6.3c1.9,0.8,4.4-1.5,6.1-3.3c0.6-0.3,1.3-0.6,1.9-0.9c4-2.2,8-4.5,12-6.6
		c3.1-1.6,1.7-4.2,2-6.5C279.1,183.5,278.5,182.9,277,183.7z"/>
	<rect x="214.1" y="143.3" class="st0" width="78.3" height="67.7"/>
	
		<ellipse transform="matrix(0.4641 -0.8858 0.8858 0.4641 -19.7152 320.0005)" class="st4" cx="254.6" cy="176.3" rx="32.3" ry="32.3"/>
</g>
<g>
	<path class="st5" d="M228.2,166.6c0.8,0,1,0.6,1.2,1.2c1.5,4.6,3,9.2,4.5,13.7c1.7,5.2,3.4,10.4,5.1,15.6c0.4,1.4,0.3,2-0.5,2.3
		c-0.8,0.3-1.3-0.1-1.7-1.5c-3.2-9.8-6.4-19.6-9.6-29.4C226.8,167.4,227.2,166.6,228.2,166.6z"/>
	<path class="st5" d="M241.1,199.5c-0.7,0-1.2-0.3-1.3-0.8c-0.2-0.7,0.2-1.2,0.8-1.4c1.7-0.7,3.5-1.3,5.2-2
		c7.2-2.7,14.4-5.5,21.6-8.2c0.3-0.1,0.7-0.3,1.1-0.3c0.6,0,1,0.4,1.1,0.9c0.1,0.7-0.2,1.1-0.8,1.3c-2.5,1-5.1,2-7.6,2.9
		c-6.4,2.4-12.7,4.9-19.1,7.3C241.7,199.3,241.3,199.4,241.1,199.5z"/>
	<path class="st5" d="M275.3,178.9c-0.4,0-0.7-0.2-1.1-0.4c-5.8-3.8-11.6-7.6-17.4-11.5c-0.6-0.4-1.2-0.8-0.8-1.7
		c0.3-0.8,1.1-0.9,1.9-0.3c3.8,2.5,7.6,5,11.3,7.4c2.1,1.4,4.3,2.8,6.4,4.2c0.5,0.4,0.8,0.8,0.6,1.5
		C276.1,178.7,275.7,178.9,275.3,178.9z"/>
	<path class="st5" d="M253.2,162.9c-3.6,0-7.2,0-10.8,0c-0.8,0-1.5-0.1-1.6-1.1c0-0.8,0.5-1.2,1.6-1.2c7.2,0,14.5,0,21.7,0
		c0,0,0.1,0,0.1,0c0.8,0,1.5,0.2,1.5,1.1c0,0.9-0.6,1.1-1.4,1.1C260.5,162.8,256.8,162.9,253.2,162.9z"/>
	<path class="st5" d="M236.3,162.9c-0.6,0-1-0.2-1.2-0.8c-0.2-0.5,0-1,0.5-1.3c0.8-0.5,1.5-1.1,2.3-1.6l14.7-10.2
		c0.1-0.1,0.2-0.2,0.3-0.2c0.6-0.4,1.2-0.3,1.6,0.2c0.5,0.6,0.3,1.2-0.3,1.7c-0.8,0.6-1.6,1.1-2.4,1.7c-4.8,3.3-9.6,6.7-14.4,10
		C237,162.6,236.6,162.9,236.3,162.9z"/>
	<path class="st5" d="M251.3,167.8l-14.2-1.1c-1.5-0.1-3-0.2-4.5-0.3c-1.1-0.1-1.6-0.5-1.5-1.3c0.1-0.8,0.7-1.1,1.8-1
		c4.9,0.4,9.7,0.8,14.6,1.1c1.3,0.1,2.7,0.2,4,0.3c0.8,0.1,1.4,0.3,1.3,1.3C252.7,167.7,252.1,167.9,251.3,167.8z"/>
	<path class="st6" d="M249.7,179.3c0,2.7,0,5.5,0,8.2c0,0.8-0.1,1.4-1.1,1.5c-1,0-1.2-0.6-1.2-1.4c0-5.5,0-11,0-16.6
		c0-0.8,0.3-1.4,1.2-1.4c0.8,0,1.1,0.6,1.1,1.4C249.7,173.7,249.7,176.5,249.7,179.3z"/>
	<path class="st5" d="M269.5,199.1c-1.1,0-1.5-0.7-1.2-1.7c1-3.1,1.9-6.2,2.9-9.2c0.6-1.9,1.2-3.8,1.8-5.8c0.3-1,0.9-1.4,1.6-1.1
		c0.9,0.3,0.8,1,0.6,1.8c-1.6,4.9-3.1,9.9-4.7,14.8C270.4,198.5,270.1,199,269.5,199.1z"/>
	<path class="st5" d="M276.8,173.8c-0.3,0-0.6-0.2-0.9-0.4c-4-2.3-7.9-4.7-11.9-7c-0.9-0.5-1.2-1.2-0.8-1.8c0.4-0.6,1.1-0.7,1.9-0.2
		c4,2.4,8,4.7,12,7.1c0.6,0.4,1,0.8,0.8,1.6C277.7,173.6,277.3,173.8,276.8,173.8z"/>
	<path class="st5" d="M241,186.4c0,0.6-0.3,0.9-0.7,1.1c-0.4,0.2-0.9,0.1-1.2-0.3c-0.2-0.3-0.4-0.6-0.5-0.9
		c-1.7-3.5-3.5-7.1-5.2-10.6c-0.1-0.1-0.1-0.2-0.2-0.4c-0.3-0.7-0.2-1.3,0.5-1.6c0.7-0.3,1.2,0,1.5,0.6c1.9,3.8,3.7,7.7,5.6,11.5
		C241,186,241,186.2,241,186.4z"/>
	<path class="st5" d="M257.7,199.5c-2.1,0-4.1,0-6.2,0c-0.8,0-1.5-0.2-1.4-1.1c0-0.9,0.7-1.1,1.5-1.1c4.2,0,8.4,0,12.6,0
		c0.8,0,1.4,0.3,1.4,1.2c0,0.9-0.7,1.1-1.5,1.1C262,199.5,259.9,199.5,257.7,199.5z"/>
	<path class="st5" d="M278.1,169.5c-0.3,0-0.5-0.2-0.8-0.3c-3.1-2.1-6.2-4.2-9.3-6.4c-0.9-0.6-0.9-1.7-0.1-2.1
		c0.5-0.2,0.9-0.1,1.3,0.2c3.1,2.1,6.2,4.3,9.3,6.4c0.5,0.4,0.9,0.8,0.6,1.4C279.1,169.3,278.7,169.5,278.1,169.5z"/>
	<path class="st5" d="M233,167.6c0.4,0,0.8,0.2,1,0.5c2.3,2.6,4.7,5.1,7,7.7c0.5,0.6,0.7,1.2,0.1,1.8c-0.6,0.5-1.2,0.4-1.8-0.2
		c-2.3-2.6-4.6-5.1-6.9-7.6c-0.4-0.4-0.6-0.9-0.4-1.5C232.2,167.8,232.6,167.6,233,167.6z"/>
	<path class="st5" d="M240.8,195.5c-0.7,0-1.2-0.8-0.9-1.6c1.3-3.2,2.6-6.4,3.9-9.6c0.3-0.7,0.9-0.9,1.6-0.6
		c0.6,0.3,0.8,0.9,0.5,1.5c-1.3,3.1-2.6,6.3-3.9,9.4C241.8,195.2,241.5,195.5,240.8,195.5z"/>
	<path class="st5" d="M269.1,177.6c0,0.6-0.3,1-0.7,1.2c-2.8,1.7-5.6,3.4-8.4,5.1c-0.6,0.4-1.3,0.4-1.7-0.3
		c-0.5-0.7-0.2-1.3,0.5-1.7c2.8-1.7,5.6-3.5,8.4-5.2C268.1,176.3,269.1,176.9,269.1,177.6z"/>
	<path class="st5" d="M249.4,157.7c-0.6,0-1.1-0.3-1.2-1c-0.1-0.8,0.4-1.2,1.1-1.3c1.8-0.4,3.6-0.7,5.4-1c1.3-0.3,2.6-0.5,4-0.8
		c0.8-0.1,1.5-0.2,1.8,0.7c0.2,0.8-0.2,1.3-1.3,1.5c-3,0.6-6.1,1.2-9.1,1.8C249.8,157.6,249.6,157.6,249.4,157.7z"/>
	<path class="st5" d="M258.9,196.2c-1,0.1-1.4-0.3-1.5-0.9c-0.1-0.7,0.3-1.1,1-1.3l7.1-1.6c0.6-0.1,1.1-0.3,1.7-0.4
		c0.7-0.1,1.1,0.2,1.3,0.8c0.2,0.6-0.1,1.2-0.7,1.3C264.8,194.9,261.7,195.6,258.9,196.2z"/>
	<path class="st7" d="M254.5,169.5c1.1,0,2.2,0,3.2,0c0.8,0,1.3,0.4,1.3,1.1c0,0.7-0.5,1.1-1.2,1.2c-2.2,0-4.4,0-6.6,0
		c-0.7,0-1.2-0.4-1.1-1.2c0.1-0.7,0.5-1,1.2-1L254.5,169.5z"/>
	<path class="st5" d="M245.3,172.4c0,0.8-0.8,1.4-1.4,1.1c-2.2-1.1-4.3-2.3-6.4-3.6c-0.6-0.3-0.6-1-0.2-1.5c0.4-0.6,1-0.6,1.6-0.3
		c1.9,1.1,3.9,2.2,5.8,3.3c0.1,0,0.2,0.1,0.3,0.2C245.2,171.7,245.3,172,245.3,172.4z"/>
	<path class="st5" d="M271.6,180.8c0,0.5-0.2,0.8-0.6,1.1c-1.7,1.3-3.3,2.7-5,4c-0.6,0.5-1.2,0.6-1.8,0c-0.5-0.5-0.4-1.2,0.3-1.8
		c1.7-1.4,3.4-2.7,5-4.1c0.4-0.3,0.9-0.5,1.4-0.2C271.4,180,271.6,180.4,271.6,180.8z"/>
	<path class="st6" d="M254.8,189c-1,0-2,0-3,0c-0.7,0-1.2-0.4-1.2-1.1c0-0.7,0.4-1.2,1.1-1.2c2.1,0,4.1,0,6.2,0
		c0.7,0,1.2,0.4,1.1,1.1c0,0.7-0.5,1.1-1.3,1.1C256.7,189,255.7,189,254.8,189z"/>
	<path class="st5" d="M240.8,180.4c0-0.3,0.2-0.6,0.4-0.9c1.1-1.1,2.1-2.2,3.2-3.2c0.5-0.6,1.2-0.8,1.8-0.2c0.6,0.6,0.4,1.3-0.2,1.8
		c-1.1,1.1-2.2,2.2-3.3,3.3c-0.4,0.4-0.8,0.5-1.3,0.3C241,181.3,240.8,181,240.8,180.4z"/>
	<path class="st5" d="M262.7,173.4c0,0.2-0.1,0.5-0.2,0.7c-0.6,0.9-1.2,1.8-1.8,2.7c-0.4,0.6-1,0.7-1.6,0.4c-0.6-0.4-0.7-1-0.3-1.6
		c0.6-0.9,1.2-1.8,1.9-2.7c0.3-0.4,0.8-0.6,1.3-0.4C262.5,172.5,262.7,172.8,262.7,173.4z"/>
	<path class="st5" d="M246.3,193.3c-0.7,0-1.1-0.3-1.2-0.8c-0.1-0.6,0-1.1,0.6-1.3c1.2-0.4,2.4-0.7,3.6-0.9c0.6-0.1,1.1,0.2,1.2,0.8
		c0.1,0.6-0.1,1.1-0.7,1.3C248.6,192.8,247.4,193,246.3,193.3z"/>
	<path class="st5" d="M262.1,158.7c0,0.8-0.5,1.3-1.3,1.1c-1.1-0.2-2.2-0.5-3.3-0.8c-0.6-0.2-1-0.7-0.8-1.3c0.1-0.7,0.6-1,1.4-0.9
		c1.1,0.2,2.2,0.5,3.2,0.8C261.8,157.8,262.1,158.1,262.1,158.7z"/>
	<path class="st6" d="M253,180.4c-0.4,0-0.9,0-1.3,0c-0.7-0.1-1.1-0.4-1.1-1.2c0-0.7,0.4-1.1,1.2-1.1c0.9,0,1.8,0,2.6,0
		c0.7,0,1.1,0.4,1.1,1c0,0.6-0.3,1.1-1,1.2C254,180.5,253.5,180.4,253,180.4L253,180.4z"/>
</g>
</svg>
