<?xml version="1.0" encoding="utf-8"?>
<!-- Generator: Adobe Illustrator 25.0.0, SVG Export Plug-In . SVG Version: 6.00 Build 0)  -->
<svg version="1.1" id="Layer_1" xmlns="http://www.w3.org/2000/svg" xmlns:xlink="http://www.w3.org/1999/xlink" x="0px" y="0px"
	 viewBox="0 0 511 511" style="enable-background:new 0 0 511 511;" xml:space="preserve">
<style type="text/css">
	.st0{fill:#FFFFFF;stroke:#000000;stroke-miterlimit:10;}
	.st1{fill:#EE915A;}
	.st2{fill:#FAFAF9;}
	.st3{fill:#F2F2F2;}
	.st4{fill:#FEFCFB;}
	.st5{fill:#EDEDED;}
	.st6{fill:#C55053;}
	.st7{fill:#EA723F;}
	.st8{fill:#EA7341;}
</style>
<g>
	<rect x="128.7" y="66.1" class="st0" width="259.3" height="254.7"/>
	<path class="st1" d="M447,189.4c0.7,33.1-8.6,61.1-20.5,88.4c-17.8,41-42,78.2-68.3,114.1c-29.8,40.8-62.6,79.1-97.5,115.6
		c-4.6,4.8-4.8,4.8-9.3,0.1c-56.6-59.9-108.9-123.3-149-195.7c-15.1-27.3-27.9-55.7-34.1-86.5c-8.6-43-1.8-84,19.1-122.2
		c31.4-57.3,80-91.3,144.7-99.5C336.7-9.6,426.2,61.9,444,157.8C446.1,169.2,447.4,180.6,447,189.4z M383.1,193.7
		c1.2-67.7-54.5-126-123.9-127.6c-72.9-1.7-130.9,58.9-130.4,127.4c0.5,69.7,56.7,127.3,125.5,127.3
		C326.5,320.8,383.1,265,383.1,193.7z"/>
	<path class="st2" d="M383.1,193.7c0,71.3-56.6,127.1-128.9,127.1c-68.7,0-125-57.6-125.5-127.3C128.2,125,186.2,64.4,259.1,66.1
		C328.6,67.7,384.3,126,383.1,193.7z M256,287.1c11.7,0,23.3,0.1,35,0c12.5-0.2,23.2-6.7,25.6-20.4c0.7-4.2,1.3-8.5,1.3-12.8
		c0.2-14.7,0.1-29.3,0-44c0-4.7,1.3-8,6.2-9.4c3.1-0.9,6.1-2.4,8.7-4.7c6.7-5.9,13.3-12,19-18.9c9.5-11.4,9.4-25.9-1.1-36.3
		c-11.2-11.2-22.8-22-33.4-33.7c-10.8-12-36.1-12.2-46.2-4.4c-10.1,7.9-19.8,8.1-30.4,0.4c-12.2-8.8-34.6-7-44.8,2.4
		c-8.3,7.7-16.1,15.8-24.3,23.7c-5.5,5.3-11.1,10.5-15.3,17c-5.3,8.2-5,20.4,0.8,28.1c5.5,7.4,12.5,13.4,19,19.8
		c2.9,2.8,6.4,5.2,10.5,6.5c5,1.6,7.3,5.2,7.2,10.6c-0.2,16.2-0.5,32.3,0.1,48.5c0.7,18,8.7,27.5,27.9,27.7
		C233.3,287.2,244.7,287.1,256,287.1z"/>
	<path class="st3" d="M256,287.1c-11.3,0-22.7,0.1-34,0c-19.2-0.2-27.2-9.8-27.9-27.7c-0.6-16.1-0.2-32.3-0.1-48.5
		c0.1-5.4-2.2-9-7.2-10.6c-4.1-1.3-7.6-3.7-10.5-6.5c-6.5-6.4-13.4-12.4-19-19.8c-5.8-7.7-6.1-19.9-0.8-28.1
		c4.2-6.5,9.8-11.7,15.3-17c8.1-7.9,16-16,24.3-23.7c10.1-9.4,32.6-11.2,44.8-2.4c10.5,7.7,20.2,7.5,30.4-0.4
		c10-7.8,35.3-7.6,46.2,4.4c10.6,11.7,22.3,22.5,33.4,33.7c10.4,10.5,10.6,24.9,1.1,36.3c-5.8,6.9-12.3,13-19,18.9
		c-2.6,2.2-5.6,3.7-8.7,4.7c-4.9,1.5-6.2,4.7-6.2,9.4c0.1,14.7,0.1,29.3,0,44c0,4.3-0.6,8.6-1.3,12.8c-2.4,13.7-13.1,20.2-25.6,20.4
		C279.3,287.3,267.7,287.1,256,287.1z M255.9,282.1c12.3,0,24.7,0,37,0c13.4,0,19.1-5.7,19.1-19.2c0-20.5,0-41,0-61.5
		c0-2.6-0.1-4.2,3.7-3.6c4.6,0.7,9.1-0.8,12.6-4.5c7.1-7.3,14.3-14.4,21.5-21.6c7.2-7.3,7.2-18.1,0-25.4
		c-10.4-10.4-20.7-20.8-31.1-31.1c-14.5-14.4-10.2-13.1-31.6-13.3c-6.8-0.1-12.4,1.7-16.6,7.2c-2.7,3.5-6.2,5.4-10.5,5.7
		c-6.9,0.5-14,0.9-18.6-5.5c-3.8-5.3-8.6-7.5-14.9-7.3c-4.5,0.1-9-0.1-13.5,0.1c-3.3,0.1-6.7,0.3-9.3,2.8
		c-14.4,14.3-28.9,28.6-43.1,43.2c-6.4,6.6-6,14.7-0.2,22c3.2,4.1,7.8,6.9,10.8,10.9c4.1,5.6,10,9.2,14.7,14.1
		c2.2,2.3,5.6,3.5,8.8,2.8c4.2-0.9,4.5,0.8,4.5,4.2c-0.1,20.2-0.1,40.3-0.1,60.5c0,12.7,6.8,19.4,19.4,19.4
		C230.9,282.1,243.4,282.1,255.9,282.1z"/>
	<path class="st4" d="M255.9,282.1c-12.5,0-25,0-37.5,0c-12.6,0-19.3-6.7-19.4-19.4c-0.1-20.2-0.1-40.3,0.1-60.5
		c0-3.5-0.3-5.1-4.5-4.2c-3.1,0.7-6.6-0.5-8.8-2.8c-4.7-4.9-10.6-8.5-14.7-14.1c-3-4-7.5-6.8-10.8-10.9c-5.7-7.3-6.2-15.4,0.2-22
		c14.2-14.5,28.7-28.8,43.1-43.2c2.5-2.5,6-2.7,9.3-2.8c4.5-0.1,9,0.1,13.5-0.1c6.3-0.2,11.1,2,14.9,7.3c4.6,6.4,11.7,6,18.6,5.5
		c4.3-0.3,7.8-2.2,10.5-5.7c4.2-5.5,9.8-7.3,16.6-7.2c21.4,0.2,17.1-1.1,31.6,13.3c10.4,10.3,20.8,20.7,31.1,31.1
		c7.3,7.3,7.3,18.1,0,25.4c-7.2,7.2-14.5,14.3-21.5,21.6c-3.6,3.7-8,5.2-12.6,4.5c-3.8-0.6-3.7,1-3.7,3.6c0,20.5,0,41,0,61.5
		c0,13.5-5.6,19.2-19.1,19.2C280.6,282.1,268.2,282.1,255.9,282.1z M206.1,183.9c0,2.8,0,4.4,0,6c0,24.1,0,48.3,0,72.4
		c0,9.4,3.5,12.8,12.9,12.8c24.3,0,48.6,0,72.9,0c10.4,0,13.2-2.8,13.2-13.3c0-24.3,0-48.6,0-72.9c0-1.4-0.9-3.3,0.8-3.9
		c0.7-0.2,2.1,1.4,3,2.2c6,5.6,10,5.6,15.8-0.2c6.3-6.4,12.7-12.7,19-19.1c6-6.2,5.9-11.5-0.2-17.6c-10-10-20.6-19.4-29.8-30.1
		c-7.4-8.6-15.5-12.5-26.8-11.2c-4.8,0.5-8.5,1.2-11.6,5.2c-8.1,10.5-29.7,10.7-37,2c-5.8-6.9-12.3-7.4-19.9-7c-2,0.1-4,0.1-6,0
		c-2.1-0.1-3.9,0.5-5.4,2c-13.7,13.8-27.5,27.4-41.2,41.3c-4.2,4.3-4.4,9.1-0.3,13.3c7.6,7.9,15.4,15.6,23.3,23.2
		c3.4,3.3,8.1,3,11.8-0.1C202.3,187.6,203.7,186.2,206.1,183.9z"/>
	<path class="st1" d="M206.1,183.9c-2.4,2.3-3.9,3.7-5.4,5c-3.6,3.1-8.4,3.3-11.8,0.1c-7.9-7.6-15.7-15.3-23.3-23.2
		c-4-4.2-3.9-8.9,0.3-13.3c13.6-13.9,27.4-27.5,41.2-41.3c1.5-1.5,3.3-2.1,5.4-2c2,0.1,4,0.1,6,0c7.6-0.4,14.1,0.1,19.9,7
		c7.3,8.7,28.9,8.5,37-2c3.1-4,6.8-4.6,11.6-5.2c11.3-1.3,19.4,2.6,26.8,11.2c9.2,10.7,19.8,20.1,29.8,30.1
		c6.1,6.1,6.2,11.4,0.2,17.6c-6.3,6.4-12.7,12.7-19,19.1c-5.8,5.8-9.8,5.8-15.8,0.2c-1-0.9-2.4-2.5-3-2.2c-1.7,0.6-0.8,2.6-0.8,3.9
		c-0.1,24.3,0,48.6,0,72.9c0,10.5-2.8,13.3-13.2,13.3c-24.3,0-48.6,0-72.9,0c-9.4,0-12.9-3.4-12.9-12.8c0-24.1,0-48.3,0-72.4
		C206.1,188.3,206.1,186.7,206.1,183.9z M277,183.8c1.4-5.1-4.4-4.6-5.9-7.5c1.3-0.7,2.5-1.6,3.9-2.2c4.9-2.1,5.1-5.6,3-9.9
		c-0.3-0.2-0.6-0.5-0.9-0.7c1.6-1.9-0.3-2.2-1.3-2.7c-4.8-2.9-9.9-5.3-14.5-8.5c-4.5-3.2-8.3-2.9-12.2,0.8c-0.1,0.5-0.1,0.9-0.2,1.4
		c-6.2,0.7-10.9,4.6-15.6,8.3c0,0,0.3,0.5,0.5,0.7c0,0.5,0,0.9,0,1.4c-2.3-0.9-2,0.8-2,2c0,4.8,0,9.5,0.1,14.3c0,0.7,0,1.5,0,2.2
		c0.5,2.7-1.7,6.1,1.8,8.2c6.2,3.6,12.4,7.1,18.5,10.7c2.6,1.5,2.6-0.1,2.6-2c-0.1-4.6-0.1-9.3-0.2-13.9c0.6-0.1,1.1-0.2,1.7-0.3
		c-0.1,3.4-0.4,6.9-0.2,10.3c0.1,2.2-1.2,5.5,0.8,6.3c1.9,0.8,4.4-1.5,6.1-3.3c0.6-0.3,1.3-0.6,1.9-0.9c4-2.2,8-4.5,12-6.6
		c3.1-1.6,1.7-4.2,2-6.5C279.1,183.6,278.5,183,277,183.8z"/>
	<rect x="214.1" y="143.4" class="st1" width="78.3" height="67.7"/>
	
		<ellipse transform="matrix(0.4641 -0.8858 0.8858 0.4641 -19.8038 320.0541)" class="st5" cx="254.6" cy="176.4" rx="32.3" ry="32.3"/>
</g>
<g>
	<path class="st6" d="M229.8,165.9c0.8,0,1,0.6,1.2,1.2c1.5,4.7,3.1,9.5,4.6,14.2c1.8,5.4,3.5,10.8,5.3,16.2
		c0.5,1.4,0.3,2.1-0.5,2.3c-0.8,0.3-1.3-0.1-1.8-1.6c-3.3-10.1-6.6-20.3-9.9-30.4C228.4,166.7,228.9,165.9,229.8,165.9z"/>
	<path class="st6" d="M243.2,199.9c-0.8,0-1.2-0.3-1.3-0.8c-0.2-0.7,0.2-1.2,0.8-1.5c1.8-0.7,3.6-1.4,5.4-2.1
		c7.5-2.8,14.9-5.7,22.4-8.5c0.4-0.1,0.7-0.3,1.1-0.3c0.6,0,1,0.4,1.1,0.9c0.1,0.7-0.2,1.1-0.9,1.4c-2.6,1-5.3,2-7.9,3
		c-6.6,2.5-13.1,5-19.7,7.5C243.8,199.7,243.4,199.8,243.2,199.9z"/>
	<path class="st6" d="M278.5,178.6c-0.4,0-0.8-0.2-1.1-0.4c-6-4-12-7.9-18-11.9c-0.6-0.4-1.2-0.9-0.8-1.8c0.4-0.8,1.1-0.9,2-0.3
		c3.9,2.6,7.8,5.1,11.7,7.7c2.2,1.5,4.4,2.9,6.6,4.4c0.6,0.4,0.8,0.8,0.6,1.5C279.4,178.3,279,178.5,278.5,178.6z"/>
	<path class="st6" d="M255.7,162c-3.7,0-7.5,0-11.2,0c-0.8,0-1.6-0.1-1.6-1.1c0-0.8,0.5-1.2,1.6-1.2c7.5,0,14.9,0,22.4,0
		c0,0,0.1,0,0.1,0c0.8,0,1.5,0.2,1.5,1.2c0,0.9-0.6,1.2-1.5,1.2C263.3,162,259.5,162,255.7,162z"/>
	<path class="st6" d="M238.2,162c-0.7,0-1.1-0.2-1.2-0.8c-0.2-0.6,0-1,0.5-1.4c0.8-0.6,1.6-1.1,2.4-1.7l15.2-10.6
		c0.1-0.1,0.2-0.2,0.3-0.2c0.6-0.4,1.2-0.3,1.7,0.2c0.5,0.6,0.3,1.3-0.3,1.7c-0.8,0.6-1.7,1.2-2.5,1.7c-5,3.5-10,6.9-14.9,10.4
		C238.9,161.7,238.6,162,238.2,162z"/>
	<path class="st6" d="M253.8,167.1l-14.7-1.1c-1.6-0.1-3.1-0.2-4.7-0.3c-1.2-0.1-1.7-0.5-1.6-1.4c0.1-0.8,0.7-1.1,1.8-1
		c5,0.4,10.1,0.8,15.1,1.2c1.4,0.1,2.8,0.2,4.2,0.3c0.8,0.1,1.5,0.4,1.4,1.3C255.2,167,254.5,167.2,253.8,167.1z"/>
	<path class="st7" d="M252.2,179c0,2.8,0,5.6,0,8.5c0,0.8-0.1,1.5-1.2,1.5c-1,0-1.2-0.6-1.2-1.5c0-5.7,0-11.4,0-17.1
		c0-0.9,0.3-1.5,1.2-1.5c0.9,0,1.1,0.6,1.1,1.4C252.1,173.2,252.2,176.1,252.2,179z"/>
	<path class="st6" d="M272.6,199.4c-1.1,0-1.6-0.8-1.2-1.8c1-3.2,2-6.4,3-9.5c0.6-2,1.3-4,1.9-6c0.3-1,0.9-1.4,1.7-1.1
		c0.9,0.4,0.9,1,0.6,1.8c-1.6,5.1-3.3,10.2-4.9,15.3C273.5,198.8,273.2,199.4,272.6,199.4z"/>
	<path class="st6" d="M280.1,173.3c-0.4,0-0.7-0.2-1-0.4c-4.1-2.4-8.2-4.8-12.3-7.3c-0.9-0.5-1.2-1.2-0.8-1.8c0.4-0.6,1.1-0.7,2-0.2
		c4.1,2.4,8.3,4.9,12.4,7.3c0.6,0.4,1,0.9,0.8,1.6C281.1,173.1,280.6,173.3,280.1,173.3z"/>
	<path class="st6" d="M243.1,186.3c0,0.6-0.3,1-0.7,1.1c-0.5,0.2-0.9,0.1-1.2-0.3c-0.2-0.3-0.4-0.6-0.5-0.9c-1.8-3.7-3.6-7.3-5.3-11
		c-0.1-0.1-0.1-0.3-0.2-0.4c-0.3-0.7-0.2-1.3,0.6-1.7c0.7-0.3,1.3,0,1.6,0.6c1.9,4,3.9,8,5.8,11.9
		C243.1,185.9,243.1,186.1,243.1,186.3z"/>
	<path class="st6" d="M260.4,199.9c-2.1,0-4.3,0-6.4,0c-0.8,0-1.5-0.2-1.5-1.2c0-0.9,0.7-1.2,1.5-1.2c4.3,0,8.7,0,13,0
		c0.9,0,1.5,0.3,1.5,1.2c0,0.9-0.7,1.2-1.5,1.1C264.8,199.8,262.6,199.9,260.4,199.9z"/>
	<path class="st6" d="M281.5,168.9c-0.3,0-0.6-0.2-0.9-0.4c-3.2-2.2-6.4-4.4-9.6-6.6c-0.9-0.6-1-1.7-0.1-2.2
		c0.5-0.3,0.9-0.1,1.4,0.2c3.2,2.2,6.4,4.4,9.7,6.6c0.5,0.4,0.9,0.8,0.7,1.5C282.5,168.6,282.1,168.9,281.5,168.9z"/>
	<path class="st6" d="M234.8,166.8c0.4,0,0.8,0.2,1.1,0.5c2.4,2.7,4.8,5.3,7.2,8c0.5,0.6,0.7,1.3,0.1,1.8c-0.6,0.5-1.3,0.4-1.8-0.2
		c-2.4-2.6-4.8-5.3-7.2-7.9c-0.4-0.4-0.6-0.9-0.4-1.5C234,167.1,234.4,166.8,234.8,166.8z"/>
	<path class="st6" d="M242.9,195.7c-0.7,0-1.3-0.8-0.9-1.6c1.3-3.3,2.7-6.6,4.1-9.9c0.3-0.7,0.9-1,1.6-0.6c0.7,0.3,0.8,0.9,0.5,1.6
		c-1.3,3.2-2.7,6.5-4,9.7C244,195.4,243.6,195.7,242.9,195.7z"/>
	<path class="st6" d="M272.1,177.3c0,0.7-0.3,1-0.8,1.3c-2.9,1.8-5.8,3.5-8.6,5.3c-0.7,0.4-1.3,0.4-1.7-0.3
		c-0.5-0.7-0.2-1.3,0.5-1.8c2.9-1.8,5.8-3.6,8.7-5.4C271.1,175.9,272.1,176.4,272.1,177.3z"/>
	<path class="st6" d="M251.8,156.6c-0.6,0-1.1-0.3-1.2-1c-0.1-0.8,0.4-1.2,1.1-1.4c1.8-0.4,3.7-0.7,5.5-1.1c1.4-0.3,2.7-0.5,4.1-0.8
		c0.8-0.1,1.6-0.3,1.9,0.7c0.2,0.8-0.2,1.3-1.3,1.6c-3.1,0.6-6.3,1.2-9.4,1.8C252.2,156.5,252,156.6,251.8,156.6z"/>
	<path class="st6" d="M261.7,196.5c-1,0.1-1.4-0.3-1.5-1c-0.1-0.7,0.3-1.2,1-1.3l7.3-1.7c0.6-0.1,1.1-0.3,1.7-0.4
		c0.7-0.1,1.2,0.2,1.4,0.9c0.2,0.6-0.1,1.2-0.7,1.3C267.7,195.1,264.6,195.8,261.7,196.5z"/>
	<path class="st8" d="M257,168.9c1.1,0,2.2,0,3.3,0c0.8,0,1.3,0.4,1.3,1.2c0,0.7-0.5,1.2-1.2,1.2c-2.3,0-4.5,0-6.8,0
		c-0.8,0-1.3-0.5-1.2-1.3c0.1-0.7,0.6-1.1,1.3-1.1L257,168.9z"/>
	<path class="st6" d="M247.6,171.8c0,0.8-0.8,1.5-1.5,1.1c-2.2-1.2-4.5-2.4-6.6-3.7c-0.6-0.3-0.6-1-0.2-1.6c0.4-0.6,1-0.6,1.7-0.3
		c2,1.1,4,2.2,6,3.4c0.1,0.1,0.2,0.1,0.3,0.2C247.4,171.1,247.5,171.4,247.6,171.8z"/>
	<path class="st6" d="M274.8,180.6c0,0.5-0.3,0.8-0.6,1.1c-1.7,1.4-3.4,2.7-5.1,4.1c-0.6,0.5-1.2,0.6-1.9,0
		c-0.5-0.5-0.4-1.3,0.4-1.9c1.7-1.4,3.5-2.8,5.2-4.2c0.4-0.4,0.9-0.5,1.4-0.2C274.6,179.7,274.8,180.1,274.8,180.6z"/>
	<path class="st7" d="M257.3,189c-1,0-2.1,0-3.1,0c-0.8,0-1.2-0.4-1.2-1.1s0.4-1.2,1.2-1.2c2.1,0,4.2,0,6.4,0c0.7,0,1.2,0.5,1.2,1.2
		c0,0.8-0.5,1.2-1.3,1.1C259.4,189,258.3,189,257.3,189z"/>
	<path class="st6" d="M242.9,180.1c0-0.3,0.2-0.7,0.5-0.9c1.1-1.1,2.2-2.2,3.3-3.4c0.6-0.6,1.2-0.8,1.8-0.2c0.7,0.6,0.4,1.3-0.2,1.9
		c-1.1,1.1-2.3,2.3-3.4,3.4c-0.4,0.4-0.8,0.5-1.3,0.3C243.1,181,242.9,180.7,242.9,180.1z"/>
	<path class="st6" d="M265.5,172.9c0,0.2-0.1,0.5-0.2,0.7c-0.6,0.9-1.2,1.8-1.9,2.7c-0.4,0.6-1,0.8-1.6,0.4
		c-0.7-0.4-0.7-1.1-0.3-1.6c0.6-1,1.3-1.9,1.9-2.8c0.3-0.5,0.9-0.6,1.4-0.4C265.3,171.9,265.6,172.3,265.5,172.9z"/>
	<path class="st6" d="M248.6,193.5c-0.7-0.1-1.2-0.3-1.3-0.9c-0.1-0.6,0-1.2,0.6-1.4c1.2-0.4,2.5-0.7,3.7-0.9
		c0.6-0.1,1.1,0.2,1.2,0.9c0.1,0.6-0.1,1.2-0.7,1.3C251,192.9,249.7,193.2,248.6,193.5z"/>
	<path class="st6" d="M264.9,157.7c0,0.8-0.5,1.3-1.4,1.2c-1.2-0.2-2.3-0.5-3.4-0.8c-0.7-0.2-1-0.7-0.8-1.4c0.2-0.7,0.7-1.1,1.4-0.9
		c1.1,0.2,2.2,0.5,3.3,0.8C264.6,156.7,264.9,157.1,264.9,157.7z"/>
	<path class="st7" d="M255.5,180.1c-0.5,0-0.9,0-1.4,0c-0.7-0.1-1.2-0.5-1.2-1.2c0-0.7,0.5-1.1,1.2-1.1c0.9,0,1.8,0,2.7,0
		c0.7,0,1.1,0.4,1.2,1.1c0,0.7-0.3,1.1-1,1.2C256.6,180.2,256,180.1,255.5,180.1L255.5,180.1z"/>
</g>
</svg>
