<?xml version="1.0" encoding="utf-8"?>
<!-- Generator: Adobe Illustrator 25.0.0, SVG Export Plug-In . SVG Version: 6.00 Build 0)  -->
<svg version="1.1" id="Layer_1" xmlns="http://www.w3.org/2000/svg" xmlns:xlink="http://www.w3.org/1999/xlink" x="0px" y="0px"
	 viewBox="0 0 511 511" style="enable-background:new 0 0 511 511;" xml:space="preserve">
<style type="text/css">
	.st0{fill:#C55053;}
	.st1{fill:#EA723F;}
	.st2{fill:#EA7341;}
	.st3{fill:#484848;}
</style>
<g>
	<g>
		<path class="st0" d="M153.8,153.9c3.2,0.2,4.2,2.4,5,5c6.3,19.3,12.6,38.7,18.9,58c7.2,22,14.4,44.1,21.5,66.1
			c1.9,5.7,1.3,8.5-2,9.5c-3.4,1.1-5.4-0.6-7.2-6.4c-13.5-41.4-26.9-82.8-40.4-124.2C148.1,157.1,149.9,153.8,153.8,153.9z"/>
		<path class="st0" d="M208.6,292.7c-3.2,0-4.9-1.1-5.5-3.4c-0.7-2.9,0.7-5,3.4-6c7.3-2.8,14.6-5.6,21.9-8.4
			c30.5-11.6,60.9-23.2,91.4-34.8c1.4-0.6,3-1.2,4.5-1.2c2.4,0,4,1.6,4.5,3.9c0.5,2.8-0.9,4.6-3.5,5.6c-10.8,4.2-21.5,8.3-32.3,12.4
			c-26.9,10.3-53.7,20.5-80.6,30.7C211,292,209.5,292.4,208.6,292.7z"/>
		<path class="st0" d="M352.9,205.7c-1.8-0.1-3.1-0.9-4.4-1.8c-24.5-16.2-49.1-32.3-73.6-48.4c-2.6-1.7-5.1-3.5-3.4-7.2
			c1.4-3.2,4.4-3.7,8.2-1.2c16,10.5,32,20.9,47.9,31.5c9.1,5.9,18.1,11.9,27.2,17.8c2.3,1.5,3.4,3.4,2.6,6.1
			C356.6,204.8,354.9,205.6,352.9,205.7z"/>
		<path class="st0" d="M259.7,137.8c-15.3,0-30.5,0-45.8,0c-3.4,0-6.5-0.4-6.7-4.7c-0.1-3.2,2.1-4.9,6.6-4.9c30.5,0,61.1,0,91.6,0
			c0.1,0,0.3,0,0.4,0c3.4-0.2,6.2,1,6.2,4.8c0,3.8-2.6,4.8-6.1,4.8C290.5,137.8,275.1,137.8,259.7,137.8z"/>
		<path class="st0" d="M188.1,137.8c-2.7,0-4.3-1-5-3.2c-0.7-2.3,0-4.2,1.9-5.6c3.3-2.3,6.5-4.6,9.8-6.8L257,79.1
			c0.5-0.3,0.9-0.7,1.4-1c2.5-1.6,5-1.4,6.8,1c1.9,2.6,1.2,5.2-1.4,7c-3.3,2.4-6.7,4.8-10.1,7.1c-20.3,14.1-40.7,28.2-61.1,42.4
			C191.1,136.7,189.7,138,188.1,137.8z"/>
		<path class="st0" d="M251.7,158.9l-60.1-4.5c-6.4-0.5-12.8-0.9-19.2-1.4c-4.7-0.3-6.8-2.1-6.5-5.5c0.3-3.3,2.8-4.6,7.5-4.2
			c20.6,1.6,41.2,3.2,61.8,4.7c5.7,0.4,11.4,0.8,17.1,1.2c3.3,0.3,6,1.4,5.6,5.4C257.5,158.3,254.9,159.1,251.7,158.9z"/>
		<path class="st1" d="M245.1,207.5c0,11.5,0,23.1,0,34.6c0,3.3-0.6,6.1-4.7,6.1c-4,0-4.9-2.6-4.9-6c0-23.3,0-46.7,0-70
			c0-3.6,1.2-6,4.9-6c3.6,0,4.7,2.6,4.7,5.9C245.1,183.8,245.1,195.6,245.1,207.5z"/>
		<path class="st0" d="M328.7,290.9c-4.6,0-6.4-3.1-5.1-7.4c4.1-13,8.2-26,12.3-39c2.6-8.1,5.2-16.2,7.8-24.3
			c1.4-4.2,3.7-5.7,6.8-4.5c3.6,1.4,3.5,4.2,2.5,7.5c-6.7,20.8-13.3,41.7-19.9,62.5C332.3,288.3,331.3,290.8,328.7,290.9z"/>
		<path class="st0" d="M359.3,184.3c-1.5-0.1-2.7-0.8-3.9-1.5c-16.8-9.9-33.6-19.8-50.4-29.7c-3.7-2.2-4.9-4.9-3.3-7.6
			c1.6-2.6,4.5-3,8.2-0.8c16.9,9.9,33.8,19.9,50.8,29.9c2.6,1.6,4.2,3.5,3.2,6.6C363.3,183.4,361.5,184.2,359.3,184.3z"/>
		<path class="st0" d="M208.2,237.2c-0.1,2.5-1.1,3.9-3,4.6c-1.9,0.7-3.7,0.5-5.1-1.1c-0.9-1.1-1.6-2.3-2.2-3.6
			c-7.3-15-14.6-30-21.9-44.9c-0.2-0.5-0.5-1-0.7-1.6c-1.2-2.9-0.8-5.4,2.3-6.8c2.9-1.4,5.1,0,6.4,2.5c8,16.2,15.8,32.5,23.7,48.8
			C207.9,235.7,208.1,236.4,208.2,237.2z"/>
		<path class="st0" d="M278.8,292.7c-8.7,0-17.4-0.1-26.1,0c-3.4,0-6.1-0.9-6-4.8c0.1-3.9,2.8-4.8,6.2-4.8c17.7,0,35.4,0,53.1,0
			c3.5,0,6.1,1.1,6.1,4.9c0,3.8-2.8,4.7-6.2,4.7C296.8,292.7,287.8,292.7,278.8,292.7z"/>
		<path class="st0" d="M364.8,166.1c-1.1,0.1-2.3-0.6-3.5-1.5c-13-9-26.1-17.9-39.1-26.9c-3.8-2.6-3.9-7.1-0.3-8.9
			c2-1,3.8-0.4,5.6,0.8c13.2,9,26.3,18.1,39.5,27.1c2.2,1.5,3.6,3.3,2.7,6.1C369.1,164.9,367.6,166,364.8,166.1z"/>
		<path class="st0" d="M174.2,157.8c1.7,0,3.3,0.8,4.4,2.1c9.8,10.9,19.7,21.8,29.6,32.6c2.2,2.4,2.9,5.2,0.2,7.5
			c-2.5,2.2-5.1,1.6-7.4-1c-9.7-10.8-19.5-21.6-29.3-32.3c-1.6-1.8-2.6-3.7-1.6-6.2C170.8,158.9,172.4,157.8,174.2,157.8z"/>
		<path class="st0" d="M207.2,275.8c-2.9,0-5.2-3.3-3.9-6.7c5.4-13.6,11-27.1,16.7-40.6c1.3-3.1,3.8-3.9,6.7-2.6
			c2.7,1.3,3.3,3.7,2.1,6.5c-5.5,13.3-10.9,26.5-16.3,39.8C211.6,274.5,210,275.7,207.2,275.8z"/>
		<path class="st0" d="M326.7,200.3c-0.1,2.7-1.3,4.2-3.1,5.3c-11.8,7.2-23.5,14.4-35.3,21.7c-2.7,1.7-5.3,1.6-7.1-1.1
			c-2-3-0.7-5.5,2.1-7.2c11.9-7.3,23.7-14.7,35.7-21.9C322.6,194.9,326.7,197,326.7,200.3z"/>
		<path class="st0" d="M243.5,115.9c-2.6-0.1-4.6-1.3-4.9-4.2c-0.4-3.3,1.6-5,4.6-5.6c7.5-1.5,15.1-2.9,22.6-4.3
			c5.6-1.1,11.2-2.1,16.8-3.2c3.2-0.6,6.5-1,7.7,3.1c1,3.3-0.9,5.4-5.5,6.3c-12.8,2.5-25.7,5-38.5,7.4
			C245.4,115.6,244.6,115.7,243.5,115.9z"/>
		<path class="st0" d="M284,278.8c-4,0.2-5.9-1.2-6.3-3.9c-0.4-3,1.2-4.8,4.2-5.5l30-6.8c2.4-0.5,4.7-1.2,7.1-1.6
			c2.8-0.4,4.8,0.9,5.5,3.6c0.7,2.6-0.4,4.9-2.8,5.5C308.7,273.3,295.8,276.1,284,278.8z"/>
		<path class="st2" d="M265.1,166.1c4.6,0,9.1,0,13.7,0c3.3,0,5.3,1.7,5.3,4.8c0.1,2.9-2,4.8-4.9,4.9c-9.3,0.1-18.5,0.1-27.8,0
			c-3.1-0.1-5.1-1.9-4.8-5.2c0.3-3.1,2.2-4.4,5.2-4.4L265.1,166.1z"/>
		<path class="st0" d="M226.3,178c0,3.3-3.2,6.1-6,4.6c-9.2-4.8-18.2-9.9-27.1-15.2c-2.3-1.4-2.6-4.1-1-6.4c1.8-2.5,4.2-2.6,6.8-1.2
			c8.2,4.6,16.4,9.2,24.5,13.8c0.4,0.2,0.7,0.4,1.1,0.7C225.9,175.2,226.3,176.5,226.3,178z"/>
		<path class="st0" d="M337.6,213.9c0.1,1.9-1,3.2-2.6,4.5c-7,5.6-14,11.2-20.9,16.9c-2.5,2.1-5.1,2.6-7.6,0.2
			c-2.1-2.1-1.6-5.2,1.5-7.7c7.1-5.8,14.2-11.4,21.3-17.1c1.8-1.4,3.7-2.1,5.9-0.9C336.8,210.4,337.6,211.8,337.6,213.9z"/>
		<path class="st1" d="M266.3,248.2c-4.3,0-8.5,0-12.8,0c-3.1,0-4.9-1.5-5-4.5c-0.1-3,1.8-4.9,4.8-4.9c8.7-0.2,17.4-0.1,26,0
			c2.9,0,4.9,1.9,4.8,4.9c-0.1,3.1-2.1,4.7-5.4,4.6C274.6,248.1,270.4,248.2,266.3,248.2z"/>
		<path class="st0" d="M207.1,212c-0.1-1.4,0.7-2.7,1.9-3.8c4.5-4.5,9-9.1,13.5-13.7c2.3-2.4,5-3.2,7.5-0.9c2.7,2.6,1.8,5.3-0.7,7.8
			c-4.7,4.6-9.2,9.3-13.8,14c-1.5,1.5-3.4,2.1-5.5,1.2C208.2,215.8,207.2,214.3,207.1,212z"/>
		<path class="st0" d="M299.8,182.3c0,1-0.3,2-0.9,2.8c-2.6,3.7-5.1,7.5-7.7,11.2c-1.7,2.4-4.2,3.1-6.7,1.5
			c-2.7-1.6-2.8-4.3-1.4-6.7c2.4-4,5.1-7.8,7.9-11.6c1.2-1.9,3.6-2.6,5.6-1.7C298.8,178.5,299.9,180.1,299.8,182.3z"/>
		<path class="st0" d="M230.5,266.6c-2.8-0.2-4.7-1.1-5.3-3.5s-0.1-4.8,2.5-5.6c5-1.5,10.1-2.8,15.2-3.7c2.5-0.5,4.4,1,5,3.6
			s-0.3,4.7-2.8,5.5C240.2,264.3,235.1,265.4,230.5,266.6z"/>
		<path class="st0" d="M297.3,120.3c0.1,3.2-2.2,5.3-5.6,4.7c-4.7-0.9-9.4-2-14.1-3.3c-2.7-0.7-4-2.8-3.4-5.5
			c0.6-2.9,2.7-4.3,5.7-3.7c4.6,1,9.1,2,13.7,3.2C295.9,116.3,297.3,117.8,297.3,120.3z"/>
		<path class="st1" d="M258.8,212.1c-1.8,0-3.7,0.1-5.5,0c-2.9-0.3-4.8-1.9-4.8-4.9s1.9-4.6,5-4.5c3.7,0.1,7.4,0,11.1,0
			c3,0,4.6,1.6,4.8,4.4c0.2,2.7-1.4,4.7-4.2,5C263.1,212.3,260.9,212,258.8,212.1L258.8,212.1z"/>
	</g>
	<path class="st3" d="M259,510.9c-33.8-36.7-67.2-73.8-96.6-114.3C124,343.7,86.6,289.7,73.3,224.2C52.5,121.6,128.4,17.4,232.2,4.1
		c123.7-15.9,225.1,75.7,219.3,200.4c-2.3,49.5-26.7,92.2-52,133.5c-37.9,61.9-84.2,117.2-134,169.8c-0.9,0.9-1.6,2.1-2.4,3.1
		C261.7,510.9,260.3,510.9,259,510.9z M296,250.6c-1.5-1.5-3-3-4.5-4.6c-6.4-6.4-12.9-12.8-19.3-19.2c-1.3-1.3-2.6-2.7-4-4
		c-1.7-1.9-3.5-3.8-5.2-5.7c-1.7-1.7-3.3-3.3-5-5c-14.8-14.6-28.1-30.9-45-43.3c-3.1-7.6-10-11.7-15.6-16.9
		c-6.5-6.5-12.9-13-19.4-19.5c-1-1.2-2.1-2.3-3.1-3.5c-1.5-1.4-3-2.8-4.5-4.2c-3-3.3-6-6.5-9-9.8c-42.2,42.1-34.5,129.9,14.1,172.8
		c55.3,48.7,128.7,36.6,162.9,5.6c-4.5-4.8-9.1-9.6-13.6-14.5c-2-2-3.9-4-5.9-6c-1.2-1-2.3-2.1-3.5-3.1
		C309,263.5,302.5,257.1,296,250.6z M203.1,113c1.2,1,2.3,2.1,3.5,3.1c6.5,6.5,13,13,19.5,19.5c4,4.1,8.1,8.3,12.1,12.4
		c11.6,11.5,23.3,23,34.9,34.6c1.4,1.3,2.7,2.6,4.1,3.8c6.6,6.6,13.1,13.2,19.7,19.9c1.3,1.3,2.7,2.7,4,4
		c6.5,6.6,13.1,13.1,19.6,19.7c1.4,1.4,2.8,2.7,4.2,4.1c6.4,6.4,12.9,12.9,19.3,19.3c1,1.2,2.1,2.4,3.1,3.6c2,2,4,3.9,6,5.9
		c5.5,8.8,9.4,8.8,15.4-0.6c41.8-65.8,15.9-152.6-55.9-185.4c-42-19.2-103.7-11.4-128.9,16.1c4.5,4.7,8.9,9.3,13.3,14
		C199,109,201,111,203.1,113z"/>
</g>
</svg>
