<?xml version="1.0" encoding="utf-8"?>
<!-- Generator: Adobe Illustrator 25.0.0, SVG Export Plug-In . SVG Version: 6.00 Build 0)  -->
<svg version="1.1" id="Layer_1" xmlns="http://www.w3.org/2000/svg" xmlns:xlink="http://www.w3.org/1999/xlink" x="0px" y="0px"
	 viewBox="0 0 511 1023" style="enable-background:new 0 0 511 1023;" xml:space="preserve">
<style type="text/css">
	.st0{fill:#C55053;}
	.st1{fill:#EA723F;}
	.st2{fill:#EA7341;}
	.st3{fill:#303030;}
</style>
<g>
	<g>
		<path class="st0" d="M148.1,195.4c3.1,0.2,4.1,2.4,5,5c6.2,19.2,12.5,38.3,18.8,57.5c7.1,21.8,14.2,43.7,21.3,65.5
			c1.8,5.7,1.3,8.4-2,9.4c-3.4,1.1-5.3-0.6-7.2-6.3c-13.3-41-26.7-82-40-123C142.5,198.6,144.2,195.3,148.1,195.4z"/>
		<path class="st0" d="M202.4,332.9c-3.1,0-4.9-1.1-5.4-3.4c-0.7-2.9,0.6-4.9,3.4-6c7.2-2.8,14.5-5.6,21.7-8.3
			c30.2-11.5,60.3-23,90.5-34.5c1.4-0.5,3-1.2,4.4-1.2c2.4,0,4,1.5,4.4,3.8c0.5,2.7-0.9,4.6-3.5,5.5c-10.7,4.1-21.3,8.2-32,12.3
			c-26.6,10.2-53.2,20.3-79.8,30.4C204.7,332.2,203.3,332.6,202.4,332.9z"/>
		<path class="st0" d="M345.3,246.7c-1.8-0.1-3.1-0.9-4.4-1.8c-24.3-16-48.6-32-72.9-48c-2.6-1.7-5-3.5-3.4-7.1
			c1.4-3.2,4.4-3.7,8.2-1.2c15.8,10.4,31.6,20.7,47.4,31.2c9,5.9,17.9,11.8,26.9,17.7c2.3,1.5,3.4,3.4,2.5,6.1
			C349,245.8,347.3,246.6,345.3,246.7z"/>
		<path class="st0" d="M253,179.5c-15.1,0-30.2,0-45.4,0c-3.4,0-6.4-0.4-6.6-4.6c-0.1-3.2,2.1-4.8,6.5-4.8c30.2,0,60.5,0,90.7,0
			c0.1,0,0.3,0,0.4,0c3.4-0.2,6.1,1,6.2,4.7c0,3.8-2.6,4.8-6.1,4.8C283.5,179.4,268.2,179.5,253,179.5z"/>
		<path class="st0" d="M182.1,179.5c-2.7,0-4.3-1-4.9-3.2c-0.7-2.3,0-4.2,1.9-5.5c3.2-2.3,6.5-4.5,9.7-6.8l61.5-42.7
			c0.5-0.3,0.9-0.7,1.4-1c2.5-1.6,5-1.4,6.7,1c1.9,2.6,1.2,5.1-1.4,7c-3.3,2.4-6.7,4.7-10,7c-20.1,14-40.3,28-60.5,42
			C185.1,178.3,183.7,179.6,182.1,179.5z"/>
		<path class="st0" d="M245.1,200.4l-59.5-4.4c-6.3-0.5-12.7-0.9-19-1.4c-4.7-0.3-6.8-2.1-6.4-5.5c0.3-3.3,2.8-4.5,7.4-4.2
			c20.4,1.6,40.8,3.2,61.2,4.7c5.6,0.4,11.3,0.8,16.9,1.2c3.3,0.3,5.9,1.4,5.6,5.4C250.8,199.8,248.2,200.5,245.1,200.4z"/>
		<path class="st1" d="M238.5,248.4c0,11.4,0,22.8,0,34.3c0,3.3-0.6,6.1-4.7,6.1c-4,0-4.8-2.5-4.8-5.9c0-23.1,0-46.2,0-69.4
			c0-3.5,1.2-6,4.9-6c3.5,0,4.6,2.6,4.6,5.8C238.5,225.1,238.5,236.7,238.5,248.4z"/>
		<path class="st0" d="M321.4,331.1c-4.5,0-6.3-3.1-5-7.3c4-12.9,8.1-25.8,12.2-38.6c2.6-8,5.1-16.1,7.7-24.1
			c1.3-4.1,3.6-5.7,6.7-4.5c3.6,1.4,3.4,4.2,2.4,7.4c-6.6,20.6-13.2,41.3-19.7,61.9C324.9,328.5,323.9,331,321.4,331.1z"/>
		<path class="st0" d="M351.7,225.5c-1.5-0.1-2.7-0.8-3.9-1.5c-16.6-9.8-33.2-19.6-49.9-29.4c-3.7-2.2-4.8-4.9-3.3-7.5
			c1.5-2.6,4.4-3,8.1-0.8c16.8,9.8,33.5,19.7,50.3,29.6c2.6,1.5,4.1,3.5,3.2,6.5C355.6,224.6,353.8,225.4,351.7,225.5z"/>
		<path class="st0" d="M202,277.9c-0.1,2.4-1.1,3.9-3,4.6c-1.9,0.7-3.7,0.5-5-1.1c-0.9-1.1-1.6-2.3-2.2-3.6
			c-7.2-14.8-14.5-29.7-21.6-44.5c-0.2-0.5-0.5-1-0.7-1.5c-1.2-2.9-0.8-5.3,2.2-6.7c2.9-1.4,5.1,0,6.3,2.5
			c7.9,16.1,15.7,32.2,23.4,48.3C201.7,276.4,201.9,277.1,202,277.9z"/>
		<path class="st0" d="M271.9,332.9c-8.6,0-17.2-0.1-25.9,0c-3.4,0-6.1-0.8-6-4.8c0.1-3.8,2.8-4.7,6.2-4.7c17.5,0,35.1,0,52.6,0
			c3.5,0,6.1,1.1,6,4.9s-2.8,4.7-6.2,4.6C289.7,332.8,280.8,332.9,271.9,332.9z"/>
		<path class="st0" d="M357.1,207.5c-1.1,0.1-2.3-0.6-3.4-1.4c-12.9-8.9-25.8-17.8-38.7-26.6c-3.8-2.6-3.9-7.1-0.3-8.8
			c2-1,3.8-0.4,5.5,0.8c13,9,26.1,17.9,39.1,26.8c2.2,1.5,3.6,3.3,2.7,6.1C361.4,206.3,359.8,207.4,357.1,207.5z"/>
		<path class="st0" d="M168.3,199.2c1.7,0,3.3,0.7,4.4,2.1c9.7,10.8,19.5,21.5,29.3,32.3c2.2,2.4,2.9,5.2,0.2,7.5
			c-2.5,2.2-5.1,1.5-7.4-1c-9.6-10.7-19.3-21.4-29-32c-1.6-1.8-2.6-3.7-1.5-6.1C165,200.3,166.6,199.2,168.3,199.2z"/>
		<path class="st0" d="M201,316.2c-2.9,0-5.2-3.3-3.8-6.6c5.4-13.4,10.9-26.8,16.5-40.2c1.3-3,3.8-3.9,6.6-2.6
			c2.7,1.3,3.2,3.6,2.1,6.4c-5.4,13.1-10.8,26.3-16.2,39.4C205.3,314.9,203.8,316,201,316.2z"/>
		<path class="st0" d="M319.4,241.4c-0.1,2.7-1.3,4.1-3.1,5.2c-11.7,7.1-23.3,14.3-35,21.5c-2.7,1.6-5.3,1.5-7.1-1.1
			c-2-3-0.7-5.4,2.1-7.1c11.8-7.3,23.5-14.5,35.3-21.7C315.3,236,319.3,238.1,319.4,241.4z"/>
		<path class="st0" d="M237,157.8c-2.5-0.1-4.5-1.3-4.8-4.1c-0.4-3.3,1.5-5,4.5-5.6c7.5-1.5,14.9-2.9,22.4-4.3
			c5.5-1.1,11.1-2.1,16.6-3.2c3.2-0.6,6.4-1,7.6,3c1,3.3-0.8,5.4-5.5,6.3c-12.7,2.5-25.4,4.9-38.2,7.4
			C238.9,157.5,238,157.6,237,157.8z"/>
		<path class="st0" d="M277,319.1c-4,0.2-5.8-1.2-6.2-3.9c-0.4-3,1.2-4.8,4.1-5.4l29.7-6.7c2.3-0.5,4.6-1.2,7-1.5
			c2.8-0.4,4.7,0.9,5.5,3.5c0.7,2.6-0.4,4.9-2.8,5.4C301.5,313.6,288.7,316.5,277,319.1z"/>
		<path class="st2" d="M258.3,207.4c4.5,0,9,0,13.5,0c3.2,0,5.2,1.7,5.3,4.8c0.1,2.9-2,4.8-4.9,4.8c-9.2,0.1-18.3,0.1-27.5,0
			c-3-0.1-5.1-1.8-4.8-5.2c0.3-3,2.2-4.4,5.2-4.4L258.3,207.4z"/>
		<path class="st0" d="M220,219.3c0,3.2-3.2,6-5.9,4.6c-9.1-4.8-18-9.8-26.9-15c-2.3-1.4-2.6-4.1-1-6.3c1.8-2.5,4.2-2.6,6.7-1.2
			c8.1,4.5,16.2,9.1,24.3,13.6c0.4,0.2,0.7,0.4,1.1,0.7C219.5,216.5,219.9,217.8,220,219.3z"/>
		<path class="st0" d="M330.1,254.8c0.1,1.9-1,3.2-2.5,4.4c-6.9,5.5-13.8,11.1-20.7,16.7c-2.5,2.1-5,2.6-7.5,0.2
			c-2.1-2.1-1.5-5.2,1.4-7.6c7-5.7,14-11.3,21.1-17c1.8-1.4,3.6-2.1,5.8-0.9C329.3,251.4,330.1,252.8,330.1,254.8z"/>
		<path class="st1" d="M259.5,288.8c-4.2,0-8.5,0-12.7,0c-3.1,0-4.9-1.5-5-4.5c-0.1-3,1.8-4.8,4.7-4.9c8.6-0.1,17.2-0.1,25.8,0
			c2.9,0,4.9,1.9,4.8,4.8c-0.1,3.1-2.1,4.7-5.4,4.6C267.7,288.7,263.6,288.8,259.5,288.8z"/>
		<path class="st0" d="M201,252.9c-0.1-1.4,0.7-2.6,1.9-3.8c4.5-4.5,8.9-9,13.4-13.6c2.3-2.3,5-3.2,7.4-0.8c2.7,2.5,1.8,5.3-0.7,7.7
			c-4.6,4.6-9.1,9.3-13.7,13.8c-1.5,1.5-3.3,2.1-5.4,1.2C202,256.7,201,255.2,201,252.9z"/>
		<path class="st0" d="M292.7,223.6c0,1-0.3,2-0.8,2.8c-2.5,3.7-5,7.4-7.6,11.1c-1.7,2.4-4.1,3-6.6,1.5c-2.7-1.6-2.8-4.3-1.4-6.6
			c2.4-4,5.1-7.7,7.8-11.5c1.2-1.9,3.6-2.6,5.6-1.7C291.8,219.8,292.8,221.3,292.7,223.6z"/>
		<path class="st0" d="M224.1,307c-2.8-0.2-4.7-1.1-5.2-3.5c-0.5-2.4-0.1-4.8,2.5-5.6c5-1.5,10-2.7,15.1-3.7c2.5-0.5,4.4,1,5,3.5
			c0.6,2.5-0.3,4.7-2.8,5.4C233.7,304.7,228.7,305.8,224.1,307z"/>
		<path class="st0" d="M290.3,162.2c0.1,3.2-2.2,5.3-5.5,4.7c-4.7-0.9-9.3-2-13.9-3.2c-2.7-0.7-4-2.8-3.4-5.5
			c0.6-2.9,2.7-4.3,5.7-3.6c4.5,0.9,9,2,13.5,3.2C288.9,158.2,290.3,159.7,290.3,162.2z"/>
		<path class="st1" d="M252.1,253.1c-1.8,0-3.7,0.1-5.5,0c-2.9-0.3-4.8-1.9-4.7-4.9c0.1-3,1.8-4.5,4.9-4.5c3.7,0.1,7.3,0,11,0
			c3,0,4.5,1.6,4.7,4.3c0.2,2.7-1.4,4.6-4.1,5C256.4,253.2,254.2,253,252.1,253.1L252.1,253.1z"/>
	</g>
	<path class="st3" d="M256,555.4c-33.8-36.7-67.2-73.8-96.6-114.3C121,388.2,83.6,334.3,70.3,268.7C49.4,166.1,125.4,62,229.1,48.6
		C352.9,32.7,454.2,124.3,448.4,249c-2.3,49.5-26.7,92.2-52,133.5c-37.9,61.9-84.2,117.2-134,169.8c-0.9,0.9-1.6,2.1-2.4,3.1
		C258.7,555.4,257.3,555.4,256,555.4z M293,295.1c-1.5-1.5-3-3-4.5-4.6c-6.4-6.4-12.9-12.8-19.3-19.2c-1.3-1.3-2.6-2.7-4-4
		c-1.7-1.9-3.5-3.8-5.2-5.7c-1.7-1.7-3.3-3.3-5-5c-14.8-14.6-28.1-30.9-45-43.3c-3.1-7.6-10-11.7-15.6-16.9
		c-6.5-6.5-12.9-13-19.4-19.5c-1-1.2-2.1-2.3-3.1-3.5c-1.5-1.4-3-2.8-4.5-4.2c-3-3.3-6-6.5-9-9.8c-42.2,42.1-34.5,129.9,14.1,172.8
		c55.3,48.7,128.7,36.6,162.9,5.6c-4.5-4.8-9.1-9.6-13.6-14.5c-2-2-3.9-4-5.9-6c-1.2-1-2.3-2.1-3.5-3.1
		C305.9,308,299.5,301.6,293,295.1z M200,157.5c1.2,1,2.3,2.1,3.5,3.1c6.5,6.5,13,13,19.5,19.5c4,4.1,8.1,8.3,12.1,12.4
		c11.6,11.5,23.3,23,34.9,34.6c1.4,1.3,2.7,2.6,4.1,3.8c6.6,6.6,13.1,13.2,19.7,19.9c1.3,1.3,2.7,2.7,4,4
		c6.5,6.6,13.1,13.1,19.6,19.7c1.4,1.4,2.8,2.7,4.2,4.1c6.4,6.4,12.9,12.9,19.3,19.3c1,1.2,2.1,2.4,3.1,3.6c2,2,4,3.9,6,5.9
		c5.5,8.8,9.4,8.8,15.4-0.6c41.8-65.8,15.9-152.6-55.9-185.4c-41.9-19.2-103.7-11.3-128.9,16.2c4.5,4.7,8.9,9.3,13.3,14
		C196,153.5,198,155.5,200,157.5z"/>
</g>
</svg>
