<?xml version="1.0" encoding="utf-8"?>
<!-- Generator: Adobe Illustrator 25.0.0, SVG Export Plug-In . SVG Version: 6.00 Build 0)  -->
<svg version="1.1" id="Layer_1" xmlns="http://www.w3.org/2000/svg" xmlns:xlink="http://www.w3.org/1999/xlink" x="0px" y="0px"
	 viewBox="0 0 511 511" style="enable-background:new 0 0 511 511;" xml:space="preserve">
<style type="text/css">
	.st0{fill:#E75626;}
	.st1{fill:#C55053;}
	.st2{fill:#EA723F;}
	.st3{fill:#EA7341;}
</style>
<g>
	<path class="st0" d="M262.3,512.4c-16.5-16.7-31.3-33-45.6-49.6c-32.9-38.1-63.9-77.7-90.5-120.5c-21.4-34.4-40.9-70-50.3-109.8
		c-14.2-60,0-114,38.3-161.4c31.7-39.3,73.7-61.7,123.7-68.2c97.6-12.7,189.4,52,210.8,148.1c9.3,41.6,2.8,81.2-13.6,119.9
		c-18.7,44-44.1,83.9-72.3,122.2c-29.7,40.4-62.3,78.5-97,114.8C264.6,509,263.7,510.5,262.3,512.4z M388.9,193.1
		c0-69.5-56.4-126.7-124-127.7c-73.3-1.1-131,59.5-130.4,127.6c0.6,69.9,56.8,127.3,126,127.3C332.3,320.3,388.9,264.2,388.9,193.1z
		"/>
</g>
<g>
	<path class="st1" d="M159.1,152.7c3,0.2,4,2.3,4.8,4.8c6,18.5,12.1,37.1,18.1,55.6c6.9,21.1,13.8,42.2,20.6,63.4
		c1.8,5.5,1.3,8.1-1.9,9.1c-3.3,1-5.1-0.6-6.9-6.1c-12.9-39.7-25.8-79.3-38.7-119C153.7,155.8,155.3,152.6,159.1,152.7z"/>
	<path class="st1" d="M211.6,285.6c-3,0-4.7-1-5.3-3.3c-0.7-2.8,0.6-4.7,3.3-5.8c7-2.7,14-5.4,21-8.1c29.2-11.1,58.3-22.3,87.5-33.4
		c1.4-0.5,2.9-1.1,4.3-1.1c2.3,0,3.9,1.5,4.3,3.7c0.5,2.6-0.9,4.4-3.4,5.4c-10.3,4-20.6,8-30.9,11.9c-25.7,9.8-51.5,19.6-77.2,29.4
		C213.9,285,212.4,285.4,211.6,285.6z"/>
	<path class="st1" d="M349.8,202.4c-1.7-0.1-3-0.9-4.3-1.7c-23.5-15.5-47-30.9-70.5-46.4c-2.5-1.6-4.9-3.4-3.3-6.9
		c1.4-3.1,4.3-3.5,7.9-1.2c15.3,10,30.6,20.1,45.9,30.1c8.7,5.7,17.3,11.4,26,17.1c2.2,1.4,3.3,3.3,2.5,5.9
		C353.3,201.4,351.7,202.2,349.8,202.4z"/>
	<path class="st1" d="M260.5,137.3c-14.6,0-29.3,0-43.9,0c-3.3,0-6.2-0.3-6.4-4.5c-0.1-3.1,2-4.7,6.3-4.7c29.3,0,58.5,0,87.8,0
		c0.1,0,0.3,0,0.4,0c3.3-0.2,5.9,0.9,6,4.6c0,3.6-2.5,4.6-5.9,4.6C290,137.3,275.3,137.3,260.5,137.3z"/>
	<path class="st1" d="M192,137.3c-2.6,0-4.1-0.9-4.7-3.1c-0.7-2.2,0-4,1.8-5.4c3.1-2.2,6.3-4.4,9.4-6.5L257.9,81
		c0.5-0.3,0.9-0.6,1.4-0.9c2.4-1.6,4.8-1.4,6.5,0.9c1.8,2.5,1.1,5-1.3,6.7c-3.2,2.3-6.5,4.6-9.7,6.8c-19.5,13.5-39,27.1-58.5,40.6
		C194.8,136.2,193.5,137.5,192,137.3z"/>
	<path class="st1" d="M252.9,157.5l-57.6-4.3c-6.1-0.5-12.3-0.9-18.4-1.4c-4.5-0.3-6.5-2-6.2-5.3c0.3-3.2,2.7-4.4,7.2-4
		c19.7,1.6,39.4,3.1,59.2,4.5c5.4,0.4,10.9,0.7,16.3,1.2c3.2,0.3,5.7,1.4,5.4,5.2C258.4,156.9,255.9,157.7,252.9,157.5z"/>
	<path class="st2" d="M246.5,204c0,11,0,22.1,0,33.1c0,3.2-0.6,5.9-4.5,5.9c-3.8,0-4.7-2.4-4.7-5.7c0-22.4,0-44.7,0-67.1
		c0-3.4,1.1-5.8,4.7-5.8c3.4,0,4.5,2.5,4.5,5.6C246.5,181.4,246.5,192.7,246.5,204z"/>
	<path class="st1" d="M326.7,283.9c-4.4,0-6.1-3-4.9-7.1c3.9-12.5,7.8-24.9,11.8-37.4c2.5-7.8,5-15.6,7.5-23.3
		c1.3-4,3.5-5.5,6.5-4.3c3.5,1.4,3.3,4.1,2.3,7.1c-6.4,19.9-12.7,39.9-19,59.9C330,281.5,329.1,283.8,326.7,283.9z"/>
	<path class="st1" d="M356,181.8c-1.4-0.1-2.6-0.8-3.8-1.5c-16.1-9.5-32.2-19-48.2-28.4c-3.5-2.1-4.7-4.7-3.2-7.2
		c1.5-2.5,4.3-2.9,7.8-0.8c16.2,9.5,32.4,19.1,48.6,28.6c2.5,1.5,4,3.4,3.1,6.3C359.8,180.9,358,181.7,356,181.8z"/>
	<path class="st1" d="M211.2,232.4c-0.1,2.4-1.1,3.8-2.9,4.5s-3.6,0.5-4.9-1.1c-0.8-1.1-1.6-2.2-2.1-3.5c-7-14.3-14-28.7-20.9-43
		c-0.2-0.5-0.5-1-0.7-1.5c-1.2-2.8-0.7-5.1,2.2-6.5c2.8-1.3,4.9,0,6.1,2.4c7.6,15.5,15.1,31.2,22.7,46.7
		C210.9,231.1,211.1,231.8,211.2,232.4z"/>
	<path class="st1" d="M278.8,285.7c-8.3,0-16.7,0-25,0c-3.3,0-5.9-0.8-5.8-4.6c0.1-3.7,2.7-4.6,6-4.6c17,0,33.9,0,50.9,0
		c3.4,0,5.9,1.1,5.8,4.7c0,3.6-2.7,4.5-6,4.5C296,285.6,287.4,285.7,278.8,285.7z"/>
	<path class="st1" d="M361.2,164.4c-1,0.1-2.2-0.6-3.3-1.4c-12.5-8.6-25-17.2-37.5-25.8c-3.6-2.5-3.7-6.8-0.3-8.5
		c1.9-1,3.6-0.4,5.3,0.8c12.6,8.7,25.2,17.3,37.9,25.9c2.1,1.4,3.5,3.2,2.6,5.9C365.3,163.2,363.8,164.3,361.2,164.4z"/>
	<path class="st1" d="M178.6,156.4c1.6,0,3.2,0.7,4.2,2c9.4,10.4,18.9,20.8,28.3,31.2c2.1,2.3,2.8,5,0.2,7.2c-2.4,2.1-4.9,1.5-7.1-1
		c-9.3-10.3-18.7-20.7-28.1-30.9c-1.6-1.7-2.5-3.6-1.5-5.9C175.4,157.4,176.9,156.4,178.6,156.4z"/>
	<path class="st1" d="M210.3,269.5c-2.8,0-5-3.2-3.7-6.4c5.2-13,10.6-25.9,16-38.9c1.2-2.9,3.7-3.7,6.4-2.5c2.6,1.2,3.1,3.5,2,6.2
		c-5.2,12.7-10.4,25.4-15.6,38.1C214.4,268.2,213,269.4,210.3,269.5z"/>
	<path class="st1" d="M324.7,197.2c-0.1,2.6-1.2,4-3,5c-11.3,6.9-22.5,13.8-33.8,20.8c-2.6,1.6-5.1,1.5-6.8-1.1
		c-1.9-2.9-0.6-5.2,2-6.9c11.4-7,22.7-14.1,34.2-21C320.8,191.9,324.7,194,324.7,197.2z"/>
	<path class="st1" d="M245.1,116.3c-2.4-0.1-4.4-1.2-4.7-4c-0.4-3.1,1.5-4.8,4.4-5.4c7.2-1.4,14.4-2.8,21.7-4.2
		c5.4-1,10.7-2.1,16.1-3.1c3.1-0.6,6.2-1,7.4,2.9c1,3.1-0.8,5.2-5.3,6.1c-12.3,2.4-24.6,4.8-36.9,7.1
		C246.9,116,246.1,116.1,245.1,116.3z"/>
	<path class="st1" d="M283.8,272.4c-3.8,0.2-5.6-1.2-6-3.8c-0.4-2.9,1.2-4.6,4-5.3l28.7-6.5c2.3-0.5,4.5-1.2,6.8-1.5
		c2.7-0.4,4.6,0.9,5.3,3.4c0.7,2.5-0.4,4.7-2.7,5.3C307.5,267,295.1,269.8,283.8,272.4z"/>
	<path class="st3" d="M265.7,164.3c4.4,0,8.7,0,13.1,0c3.1,0,5.1,1.6,5.1,4.6c0,2.8-1.9,4.6-4.7,4.7c-8.9,0.1-17.7,0.1-26.6,0
		c-2.9-0.1-4.9-1.8-4.6-5c0.3-2.9,2.2-4.2,5-4.2L265.7,164.3z"/>
	<path class="st1" d="M228.6,175.8c0,3.1-3.1,5.8-5.8,4.4c-8.8-4.6-17.4-9.5-26-14.5c-2.2-1.3-2.5-3.9-0.9-6.1
		c1.7-2.4,4.1-2.5,6.5-1.2c7.8,4.4,15.7,8.8,23.5,13.2c0.4,0.2,0.7,0.4,1,0.7C228.1,173.1,228.5,174.3,228.6,175.8z"/>
	<path class="st1" d="M335.1,210.1c0.1,1.8-1,3.1-2.4,4.3c-6.7,5.4-13.4,10.7-20.1,16.1c-2.4,2-4.9,2.5-7.3,0.1
		c-2-2.1-1.5-5,1.4-7.4c6.8-5.5,13.6-10.9,20.4-16.4c1.7-1.4,3.5-2,5.6-0.9C334.3,206.8,335.1,208.2,335.1,210.1z"/>
	<path class="st2" d="M266.8,243c-4.1,0-8.2,0-12.3,0c-3,0-4.7-1.5-4.8-4.4c-0.1-2.9,1.7-4.7,4.6-4.7c8.3-0.1,16.6-0.1,24.9,0
		c2.8,0,4.7,1.8,4.6,4.7c-0.1,3-2,4.5-5.2,4.4C274.8,243,270.8,243,266.8,243z"/>
	<path class="st1" d="M210.2,208.3c-0.1-1.4,0.7-2.5,1.8-3.7c4.3-4.4,8.6-8.7,12.9-13.1c2.2-2.3,4.8-3.1,7.2-0.8
		c2.6,2.5,1.7,5.1-0.7,7.5c-4.5,4.4-8.8,9-13.3,13.4c-1.5,1.5-3.2,2-5.2,1.2C211.2,212,210.2,210.6,210.2,208.3z"/>
	<path class="st1" d="M299,179.9c0,1-0.3,1.9-0.8,2.7c-2.5,3.6-4.8,7.2-7.4,10.8c-1.7,2.3-4,2.9-6.4,1.4c-2.6-1.6-2.7-4.2-1.3-6.4
		c2.3-3.8,4.9-7.5,7.5-11.1c1.2-1.8,3.4-2.5,5.4-1.7C298,176.3,299,177.8,299,179.9z"/>
	<path class="st1" d="M232.6,260.6c-2.7-0.2-4.5-1-5-3.4c-0.5-2.3-0.1-4.6,2.4-5.4c4.8-1.4,9.7-2.6,14.6-3.6
		c2.4-0.5,4.3,0.9,4.8,3.4c0.6,2.5-0.3,4.5-2.7,5.2C241.9,258.4,237,259.5,232.6,260.6z"/>
	<path class="st1" d="M296.6,120.5c0.1,3.1-2.1,5.1-5.3,4.5c-4.5-0.8-9-2-13.5-3.1c-2.6-0.7-3.9-2.7-3.3-5.3
		c0.6-2.8,2.6-4.1,5.5-3.5c4.4,0.9,8.8,1.9,13.1,3.1C295.2,116.7,296.6,118.1,296.6,120.5z"/>
	<path class="st2" d="M259.6,208.5c-1.8,0-3.6,0.1-5.3,0c-2.8-0.2-4.6-1.8-4.6-4.7c0.1-2.9,1.8-4.4,4.8-4.4c3.5,0.1,7.1,0,10.6,0
		c2.9,0,4.4,1.6,4.6,4.2c0.2,2.6-1.3,4.5-4,4.8C263.8,208.6,261.7,208.4,259.6,208.5L259.6,208.5z"/>
</g>
</svg>
