<?xml version="1.0" encoding="utf-8"?>
<!-- Generator: Adobe Illustrator 25.0.0, SVG Export Plug-In . SVG Version: 6.00 Build 0)  -->
<svg version="1.1" id="Layer_1" xmlns="http://www.w3.org/2000/svg" xmlns:xlink="http://www.w3.org/1999/xlink" x="0px" y="0px"
	 viewBox="0 0 511 1023" style="enable-background:new 0 0 511 1023;" xml:space="preserve">
<style type="text/css">
	.st0{fill:#E75626;}
	.st1{fill:#C55053;}
	.st2{fill:#EA723F;}
	.st3{fill:#EA7341;}
</style>
<g>
	<path class="st0" d="M256.6,512.9c-16.5-16.7-31.3-33-45.6-49.6c-32.9-38.1-63.9-77.7-90.5-120.5C99,308.4,79.6,272.9,70.1,233
		c-14.2-60,0-114,38.3-161.4c31.7-39.3,73.7-61.7,123.7-68.2c97.6-12.7,189.4,52,210.8,148.1c9.3,41.6,2.8,81.2-13.6,119.9
		c-18.7,44-44.1,83.9-72.3,122.2c-29.7,40.4-62.3,78.5-97,114.8C258.9,509.5,258,511,256.6,512.9z M383.2,193.6
		c0-69.5-56.4-126.7-124-127.7c-73.3-1.1-131,59.5-130.4,127.6c0.6,69.9,56.8,127.3,126,127.3C326.6,320.8,383.2,264.7,383.2,193.6z
		"/>
</g>
<g>
	<path class="st1" d="M149,151.4c3.1,0.2,4.1,2.4,4.9,4.8c6.1,18.7,12.2,37.5,18.3,56.2c7,21.4,13.9,42.7,20.9,64.1
		c1.8,5.5,1.3,8.2-1.9,9.2c-3.3,1-5.2-0.6-7-6.2c-13.1-40.1-26.1-80.2-39.1-120.3C143.5,154.5,145.2,151.2,149,151.4z"/>
	<path class="st1" d="M202.1,285.8c-3.1,0-4.8-1.1-5.3-3.3c-0.7-2.8,0.6-4.8,3.3-5.8c7.1-2.7,14.1-5.4,21.2-8.2
		c29.5-11.3,59-22.5,88.5-33.7c1.4-0.5,2.9-1.2,4.3-1.2c2.3,0,3.9,1.5,4.3,3.8c0.5,2.7-0.9,4.5-3.4,5.4c-10.4,4-20.8,8-31.3,12
		c-26,9.9-52,19.9-78,29.8C204.4,285.1,202.9,285.6,202.1,285.8z"/>
	<path class="st1" d="M341.8,201.6c-1.7-0.1-3-0.9-4.3-1.7c-23.8-15.6-47.5-31.3-71.3-46.9c-2.5-1.7-4.9-3.4-3.3-7
		c1.4-3.1,4.3-3.6,8-1.2c15.5,10.1,31,20.3,46.4,30.5c8.8,5.8,17.5,11.5,26.3,17.3c2.2,1.4,3.3,3.3,2.5,5.9
		C345.4,200.6,343.8,201.4,341.8,201.6z"/>
	<path class="st1" d="M251.5,135.8c-14.8,0-29.6,0-44.4,0c-3.3,0-6.3-0.3-6.5-4.5c-0.1-3.1,2-4.7,6.4-4.7c29.6,0,59.2,0,88.8,0
		c0.1,0,0.3,0,0.4,0c3.3-0.2,6,0.9,6,4.6c0,3.7-2.5,4.7-5.9,4.7C281.4,135.8,266.5,135.8,251.5,135.8z"/>
	<path class="st1" d="M182.2,135.8c-2.6,0-4.2-0.9-4.8-3.1c-0.7-2.2,0-4.1,1.9-5.4c3.2-2.2,6.3-4.4,9.5-6.6l60.1-41.8
		c0.5-0.3,0.9-0.6,1.4-0.9c2.5-1.6,4.9-1.4,6.6,1c1.9,2.5,1.2,5-1.3,6.8c-3.2,2.4-6.5,4.6-9.8,6.9c-19.7,13.7-39.4,27.4-59.2,41
		C185.1,134.7,183.8,136,182.2,135.8z"/>
	<path class="st1" d="M243.8,156.2l-58.2-4.3c-6.2-0.5-12.4-0.9-18.6-1.4c-4.6-0.3-6.6-2.1-6.3-5.4c0.3-3.2,2.7-4.4,7.3-4.1
		c19.9,1.6,39.9,3.1,59.8,4.6c5.5,0.4,11,0.8,16.5,1.2c3.2,0.3,5.8,1.4,5.4,5.3C249.5,155.7,246.9,156.4,243.8,156.2z"/>
	<path class="st2" d="M237.4,203.3c0,11.2,0,22.3,0,33.5c0,3.2-0.6,5.9-4.6,6c-3.9,0-4.7-2.5-4.7-5.8c0-22.6,0-45.2,0-67.8
		c0-3.4,1.2-5.8,4.8-5.8c3.5,0,4.5,2.5,4.5,5.7C237.4,180.4,237.4,191.8,237.4,203.3z"/>
	<path class="st1" d="M318.4,284.1c-4.4,0-6.2-3-4.9-7.1c4-12.6,7.9-25.2,12-37.8c2.5-7.9,5-15.7,7.5-23.6c1.3-4,3.6-5.6,6.6-4.4
		c3.5,1.4,3.4,4.1,2.4,7.2c-6.5,20.2-12.9,40.4-19.3,60.6C321.9,281.6,320.9,284,318.4,284.1z"/>
	<path class="st1" d="M348.1,180.8c-1.4-0.1-2.6-0.8-3.8-1.5c-16.3-9.6-32.5-19.2-48.8-28.8c-3.6-2.1-4.7-4.8-3.2-7.3
		s4.3-2.9,7.9-0.8c16.4,9.6,32.8,19.3,49.2,28.9c2.6,1.5,4,3.4,3.1,6.4C351.9,179.9,350.2,180.7,348.1,180.8z"/>
	<path class="st1" d="M201.7,232c-0.1,2.4-1.1,3.8-2.9,4.5c-1.8,0.7-3.6,0.5-4.9-1.1c-0.9-1.1-1.6-2.3-2.1-3.5
		c-7.1-14.5-14.1-29-21.2-43.5c-0.2-0.5-0.5-1-0.7-1.5c-1.2-2.8-0.7-5.2,2.2-6.6c2.8-1.3,5,0,6.2,2.4c7.7,15.7,15.3,31.5,22.9,47.3
		C201.4,230.7,201.6,231.3,201.7,232z"/>
	<path class="st1" d="M270.1,285.9c-8.4,0-16.9-0.1-25.3,0c-3.3,0-6-0.8-5.9-4.7c0.1-3.8,2.7-4.6,6-4.6c17.1,0,34.3,0,51.4,0
		c3.4,0,5.9,1.1,5.9,4.8c0,3.7-2.7,4.6-6,4.5C287.5,285.8,278.8,285.9,270.1,285.9z"/>
	<path class="st1" d="M353.4,163.2c-1,0.1-2.2-0.6-3.4-1.4c-12.6-8.7-25.3-17.4-37.9-26c-3.7-2.5-3.8-6.9-0.3-8.6
		c2-1,3.7-0.4,5.4,0.8c12.7,8.8,25.5,17.5,38.3,26.2c2.1,1.4,3.5,3.2,2.7,5.9C357.6,162,356.1,163.1,353.4,163.2z"/>
	<path class="st1" d="M168.8,155.1c1.7,0,3.2,0.7,4.3,2c9.5,10.5,19.1,21.1,28.7,31.6c2.1,2.3,2.8,5.1,0.2,7.3c-2.4,2.1-5,1.5-7.2-1
		c-9.4-10.5-18.9-20.9-28.4-31.3c-1.6-1.7-2.5-3.6-1.5-6C165.5,156.2,167,155.1,168.8,155.1z"/>
	<path class="st1" d="M200.7,269.5c-2.8,0-5.1-3.2-3.8-6.5c5.3-13.2,10.7-26.2,16.1-39.3c1.2-3,3.7-3.8,6.5-2.5
		c2.6,1.2,3.2,3.6,2.1,6.3c-5.3,12.8-10.6,25.7-15.8,38.6C205,268.2,203.5,269.4,200.7,269.5z"/>
	<path class="st1" d="M316.5,196.4c-0.1,2.6-1.3,4-3,5.1c-11.4,7-22.8,14-34.2,21c-2.6,1.6-5.1,1.5-6.9-1.1c-2-2.9-0.6-5.3,2-6.9
		c11.5-7.1,23-14.2,34.6-21.2C312.5,191.1,316.5,193.1,316.5,196.4z"/>
	<path class="st1" d="M235.9,114.6c-2.5-0.1-4.4-1.2-4.7-4c-0.4-3.2,1.5-4.9,4.4-5.4c7.3-1.4,14.6-2.8,21.9-4.2
		c5.4-1,10.8-2.1,16.2-3.1c3.1-0.6,6.3-1,7.5,3c1,3.2-0.8,5.2-5.3,6.1c-12.4,2.4-24.9,4.8-37.3,7.2
		C237.8,114.3,236.9,114.4,235.9,114.6z"/>
	<path class="st1" d="M275.1,272.4c-3.9,0.2-5.7-1.2-6.1-3.8c-0.4-2.9,1.2-4.7,4-5.3l29-6.6c2.3-0.5,4.5-1.2,6.9-1.5
		c2.7-0.4,4.6,0.9,5.4,3.5c0.7,2.5-0.4,4.8-2.8,5.3C299,267,286.5,269.8,275.1,272.4z"/>
	<path class="st3" d="M256.8,163.2c4.4,0,8.8,0,13.2,0c3.2,0,5.1,1.6,5.2,4.7c0.1,2.9-1.9,4.7-4.8,4.7c-9,0.1-17.9,0.1-26.9,0
		c-3-0.1-5-1.8-4.7-5.1c0.3-3,2.2-4.3,5.1-4.3L256.8,163.2z"/>
	<path class="st1" d="M219.2,174.7c0,3.2-3.1,5.9-5.8,4.5c-8.9-4.7-17.6-9.6-26.3-14.7c-2.3-1.3-2.5-4-1-6.2
		c1.7-2.4,4.1-2.6,6.6-1.2c7.9,4.4,15.8,8.9,23.8,13.3c0.4,0.2,0.7,0.4,1,0.7C218.8,172,219.2,173.3,219.2,174.7z"/>
	<path class="st1" d="M327,209.5c0.1,1.9-1,3.1-2.5,4.3c-6.8,5.4-13.5,10.9-20.3,16.3c-2.5,2-4.9,2.6-7.3,0.2
		c-2.1-2.1-1.5-5.1,1.4-7.5c6.8-5.6,13.7-11.1,20.6-16.6c1.7-1.4,3.6-2.1,5.7-0.9C326.2,206.2,327,207.5,327,209.5z"/>
	<path class="st2" d="M258,242.8c-4.1,0-8.3,0-12.4,0c-3,0-4.8-1.5-4.9-4.4c-0.1-2.9,1.8-4.7,4.6-4.8c8.4-0.1,16.8-0.1,25.2,0
		c2.9,0,4.8,1.8,4.7,4.7c-0.1,3-2,4.6-5.2,4.5C266,242.7,261.9,242.8,258,242.8z"/>
	<path class="st1" d="M200.7,207.6c-0.1-1.4,0.7-2.6,1.8-3.7c4.4-4.4,8.7-8.8,13.1-13.3c2.2-2.3,4.9-3.1,7.3-0.8
		c2.6,2.5,1.7,5.1-0.7,7.5c-4.5,4.5-8.9,9.1-13.4,13.5c-1.5,1.5-3.2,2-5.3,1.2C201.7,211.3,200.7,209.9,200.7,207.6z"/>
	<path class="st1" d="M290.4,178.9c0,1-0.3,1.9-0.8,2.7c-2.5,3.6-4.9,7.3-7.4,10.9c-1.7,2.4-4,3-6.5,1.5c-2.6-1.6-2.7-4.2-1.3-6.5
		c2.3-3.9,5-7.5,7.6-11.2c1.2-1.8,3.5-2.5,5.5-1.7C289.5,175.2,290.5,176.7,290.4,178.9z"/>
	<path class="st1" d="M223.3,260.6c-2.7-0.2-4.6-1-5.1-3.4c-0.5-2.4-0.1-4.7,2.4-5.4c4.9-1.4,9.8-2.7,14.8-3.6
		c2.4-0.5,4.3,1,4.9,3.4c0.6,2.5-0.3,4.6-2.7,5.3C232.7,258.3,227.8,259.4,223.3,260.6z"/>
	<path class="st1" d="M288,118.9c0.1,3.1-2.1,5.2-5.4,4.6c-4.6-0.8-9.1-2-13.6-3.2c-2.6-0.7-3.9-2.7-3.3-5.4
		c0.6-2.8,2.7-4.2,5.5-3.6c4.4,0.9,8.9,2,13.2,3.1C286.6,115,288,116.4,288,118.9z"/>
	<path class="st2" d="M250.7,207.8c-1.8,0-3.6,0.1-5.4,0c-2.9-0.2-4.7-1.8-4.6-4.8c0.1-3,1.8-4.5,4.8-4.4c3.6,0.1,7.2,0,10.7,0
		c2.9,0,4.4,1.6,4.6,4.2c0.2,2.6-1.3,4.5-4,4.9C254.8,207.9,252.7,207.7,250.7,207.8L250.7,207.8z"/>
</g>
</svg>
