<?xml version="1.0" encoding="utf-8"?>
<!-- Generator: Adobe Illustrator 25.0.0, SVG Export Plug-In . SVG Version: 6.00 Build 0)  -->
<svg version="1.1" id="Layer_1" xmlns="http://www.w3.org/2000/svg" xmlns:xlink="http://www.w3.org/1999/xlink" x="0px" y="0px"
	 viewBox="0 0 511 511" style="enable-background:new 0 0 511 511;" xml:space="preserve">
<style type="text/css">
	.st0{fill:#EE915A;}
	.st1{fill:#C55053;}
	.st2{fill:#EA723F;}
	.st3{fill:#EA7341;}
</style>
<g>
	<path class="st0" d="M256.1,511c-13.5-13.7-25.9-27.2-38-40.9c-29.8-33.8-57.9-68.8-83.1-106.2c-22.9-33.9-43.5-69-57.6-107.6
		C68.5,232,63.3,207.1,64.9,181c2.5-42.1,17-79.5,44-111.8c30-35.9,68.2-58.3,114.3-65.9C281.1-6.2,333.3,7.5,378.7,45
		c30.2,25,50.5,56.7,61.3,94.5c11.8,41.1,8.4,81.2-7,120.8c-16.3,41.9-39.4,80-65.1,116.6c-26.3,37.4-55.2,72.6-86,106.4
		C273.6,492.4,265,501.4,256.1,511z M383.1,192.3c1.3-68.3-55-126.2-123.8-127.8c-73.6-1.8-130.8,59.6-130.7,127.3
		c0.1,66.7,53.4,126.6,125.9,127.4C330.1,320,384.2,258.1,383.1,192.3z"/>
</g>
<g>
	<path class="st1" d="M160.8,153.5c2.9,0.2,3.8,2.2,4.6,4.6c5.8,17.7,11.6,35.5,17.4,53.2c6.6,20.2,13.2,40.4,19.7,60.6
		c1.7,5.2,1.2,7.8-1.8,8.7c-3.1,1-4.9-0.6-6.6-5.8c-12.4-37.9-24.7-75.9-37-113.8C155.6,156.5,157.2,153.4,160.8,153.5z"/>
	<path class="st1" d="M211,280.8c-2.9,0-4.5-1-5-3.1c-0.7-2.7,0.6-4.5,3.1-5.5c6.7-2.6,13.4-5.2,20.1-7.7
		c27.9-10.7,55.8-21.3,83.8-31.9c1.3-0.5,2.7-1.1,4.1-1.1c2.2,0,3.7,1.4,4.1,3.6c0.4,2.5-0.8,4.2-3.2,5.1
		c-9.9,3.8-19.7,7.6-29.6,11.4c-24.6,9.4-49.2,18.8-73.9,28.2C213.2,280.1,211.8,280.5,211,280.8z"/>
	<path class="st1" d="M343.3,201.1c-1.6-0.1-2.9-0.8-4.1-1.7c-22.5-14.8-45-29.6-67.5-44.4c-2.4-1.6-4.7-3.2-3.2-6.6
		c1.3-2.9,4.1-3.4,7.6-1.1c14.7,9.6,29.3,19.2,43.9,28.8c8.3,5.5,16.6,10.9,24.9,16.4c2.1,1.4,3.1,3.1,2.4,5.6
		C346.7,200.1,345.1,200.9,343.3,201.1z"/>
	<path class="st1" d="M257.8,138.8c-14,0-28,0-42,0c-3.2,0-5.9-0.3-6.1-4.3c-0.1-3,1.9-4.5,6-4.5c28,0,56,0,84,0c0.1,0,0.3,0,0.4,0
		c3.2-0.2,5.7,0.9,5.7,4.4c0,3.5-2.4,4.4-5.6,4.4C286.1,138.8,272,138.8,257.8,138.8z"/>
	<path class="st1" d="M192.2,138.8c-2.5,0-3.9-0.9-4.5-2.9c-0.6-2.1,0-3.9,1.8-5.1c3-2.1,6-4.2,9-6.3l56.9-39.5
		c0.4-0.3,0.9-0.6,1.3-0.9c2.3-1.5,4.6-1.3,6.2,0.9c1.8,2.4,1.1,4.8-1.3,6.5c-3.1,2.2-6.2,4.4-9.3,6.5c-18.6,12.9-37.3,25.9-56,38.8
		C195,137.7,193.7,138.9,192.2,138.8z"/>
	<path class="st1" d="M250.5,158.1l-55.1-4.1c-5.9-0.4-11.7-0.9-17.6-1.3c-4.3-0.3-6.3-2-6-5.1c0.3-3,2.6-4.2,6.9-3.9
		c18.9,1.5,37.8,2.9,56.6,4.3c5.2,0.4,10.4,0.7,15.6,1.1c3,0.2,5.5,1.3,5.1,5C255.8,157.6,253.4,158.3,250.5,158.1z"/>
	<path class="st2" d="M244.5,202.6c0,10.6,0,21.1,0,31.7c0,3-0.5,5.6-4.3,5.6c-3.7,0-4.5-2.3-4.5-5.5c0-21.4,0-42.8,0-64.2
		c0-3.3,1.1-5.5,4.5-5.5c3.3,0,4.3,2.4,4.3,5.4C244.4,181,244.5,191.8,244.5,202.6z"/>
	<path class="st1" d="M321.1,279.1c-4.2,0-5.9-2.8-4.6-6.8c3.7-11.9,7.5-23.9,11.3-35.8c2.4-7.4,4.7-14.9,7.1-22.3
		c1.2-3.8,3.4-5.3,6.2-4.1c3.3,1.3,3.2,3.9,2.2,6.8c-6.1,19.1-12.2,38.2-18.2,57.3C324.4,276.8,323.5,279,321.1,279.1z"/>
	<path class="st1" d="M349.2,181.4c-1.3-0.1-2.5-0.7-3.6-1.4c-15.4-9.1-30.8-18.2-46.2-27.2c-3.4-2-4.5-4.5-3-6.9
		c1.4-2.4,4.1-2.8,7.5-0.8c15.5,9.1,31,18.2,46.5,27.4c2.4,1.4,3.8,3.2,3,6.1C352.8,180.6,351.2,181.3,349.2,181.4z"/>
	<path class="st1" d="M210.7,229.8c-0.1,2.3-1.1,3.6-2.8,4.3c-1.7,0.7-3.4,0.4-4.7-1c-0.8-1-1.5-2.1-2-3.3
		c-6.7-13.7-13.4-27.5-20-41.2c-0.2-0.5-0.4-1-0.6-1.4c-1.1-2.7-0.7-4.9,2.1-6.2c2.7-1.3,4.7,0,5.9,2.3
		c7.3,14.9,14.5,29.8,21.7,44.7C210.4,228.5,210.6,229.2,210.7,229.8z"/>
	<path class="st1" d="M275.4,280.8c-8,0-16,0-23.9,0c-3.2,0-5.6-0.8-5.5-4.4c0.1-3.6,2.6-4.4,5.7-4.4c16.2,0,32.5,0,48.7,0
		c3.2,0,5.6,1,5.6,4.5c0,3.5-2.6,4.3-5.7,4.3C291.8,280.7,283.6,280.8,275.4,280.8z"/>
	<path class="st1" d="M354.2,164.7c-1,0.1-2.1-0.6-3.2-1.3c-11.9-8.2-23.9-16.4-35.9-24.6c-3.5-2.4-3.6-6.5-0.3-8.2
		c1.9-1,3.5-0.4,5.1,0.7c12.1,8.3,24.1,16.6,36.2,24.8c2,1.4,3.3,3.1,2.5,5.6C358.2,163.6,356.7,164.6,354.2,164.7z"/>
	<path class="st1" d="M179.5,157.1c1.6,0,3.1,0.7,4.1,1.9c9,10,18.1,19.9,27.1,29.9c2,2.2,2.6,4.8,0.2,6.9c-2.3,2-4.7,1.4-6.8-0.9
		c-8.9-9.9-17.9-19.8-26.9-29.6c-1.5-1.7-2.4-3.4-1.4-5.7C176.4,158.1,177.9,157.1,179.5,157.1z"/>
	<path class="st1" d="M209.7,265.3c-2.7,0-4.8-3-3.6-6.1c5-12.4,10.1-24.8,15.3-37.2c1.2-2.8,3.5-3.6,6.1-2.4c2.5,1.2,3,3.4,1.9,5.9
		c-5,12.2-10,24.3-15,36.5C213.7,264.1,212.3,265.2,209.7,265.3z"/>
	<path class="st1" d="M319.3,196.1c-0.1,2.5-1.2,3.8-2.9,4.8c-10.8,6.6-21.6,13.2-32.4,19.9c-2.5,1.5-4.9,1.4-6.5-1
		c-1.9-2.7-0.6-5,1.9-6.6c10.9-6.7,21.8-13.5,32.7-20.1C315.5,191.1,319.3,193,319.3,196.1z"/>
	<path class="st1" d="M243,118.7c-2.3-0.1-4.2-1.2-4.5-3.8c-0.4-3,1.4-4.6,4.2-5.1c6.9-1.4,13.8-2.7,20.7-4c5.1-1,10.2-2,15.4-2.9
		c2.9-0.6,5.9-1,7.1,2.8c0.9,3-0.8,5-5.1,5.8c-11.8,2.3-23.5,4.6-35.3,6.8C244.8,118.4,244,118.5,243,118.7z"/>
	<path class="st1" d="M280.1,268.1c-3.7,0.2-5.4-1.1-5.8-3.6c-0.4-2.7,1.1-4.4,3.8-5l27.5-6.2c2.2-0.5,4.3-1.1,6.5-1.4
		c2.6-0.4,4.4,0.8,5.1,3.3c0.7,2.4-0.4,4.5-2.6,5C302.8,263,290.9,265.6,280.1,268.1z"/>
	<path class="st3" d="M262.8,164.7c4.2,0,8.4,0,12.5,0c3,0,4.8,1.5,4.9,4.4c0,2.7-1.8,4.4-4.5,4.5c-8.5,0.1-17,0.1-25.4,0
		c-2.8-0.1-4.7-1.7-4.4-4.8c0.3-2.8,2.1-4.1,4.8-4.1L262.8,164.7z"/>
	<path class="st1" d="M227.3,175.6c0,3-2.9,5.6-5.5,4.2c-8.4-4.4-16.7-9.1-24.9-13.9c-2.1-1.3-2.4-3.7-0.9-5.9
		c1.6-2.3,3.9-2.4,6.2-1.1c7.5,4.2,15,8.4,22.5,12.6c0.3,0.2,0.7,0.4,1,0.6C226.8,173.1,227.2,174.3,227.3,175.6z"/>
	<path class="st1" d="M329.2,208.5c0.1,1.8-1,3-2.3,4.1c-6.4,5.1-12.8,10.3-19.2,15.4c-2.3,1.9-4.7,2.4-6.9,0.1
		c-2-2-1.4-4.8,1.3-7.1c6.5-5.3,13-10.5,19.5-15.7c1.7-1.3,3.4-2,5.4-0.9C328.5,205.4,329.2,206.6,329.2,208.5z"/>
	<path class="st2" d="M263.9,240c-3.9,0-7.8,0-11.7,0c-2.9,0-4.5-1.4-4.6-4.2s1.7-4.5,4.4-4.5c8-0.1,15.9-0.1,23.9,0
		c2.7,0,4.5,1.7,4.4,4.5c-0.1,2.9-1.9,4.3-5,4.3C271.5,239.9,267.7,240,263.9,240z"/>
	<path class="st1" d="M209.7,206.8c-0.1-1.3,0.7-2.4,1.7-3.5c4.1-4.2,8.3-8.4,12.4-12.6c2.1-2.2,4.6-3,6.9-0.8
		c2.5,2.4,1.7,4.9-0.6,7.1c-4.3,4.2-8.4,8.6-12.7,12.8c-1.4,1.4-3.1,1.9-5,1.1C210.6,210.3,209.7,208.9,209.7,206.8z"/>
	<path class="st1" d="M294.6,179.6c0,0.9-0.3,1.8-0.8,2.6c-2.4,3.4-4.6,6.9-7,10.3c-1.6,2.2-3.8,2.8-6.1,1.4c-2.5-1.5-2.6-4-1.3-6.1
		c2.2-3.7,4.7-7.1,7.2-10.6c1.1-1.7,3.3-2.4,5.2-1.6C293.7,176.1,294.7,177.5,294.6,179.6z"/>
	<path class="st1" d="M231.1,256.8c-2.6-0.2-4.3-1-4.8-3.2c-0.5-2.2-0.1-4.4,2.3-5.1c4.6-1.4,9.3-2.5,14-3.4
		c2.3-0.4,4.1,0.9,4.6,3.3c0.5,2.4-0.3,4.3-2.6,5C240,254.7,235.3,255.7,231.1,256.8z"/>
	<path class="st1" d="M292.3,122.8c0.1,2.9-2,4.9-5.1,4.3c-4.3-0.8-8.6-1.9-12.9-3c-2.5-0.7-3.7-2.6-3.1-5.1
		c0.6-2.7,2.5-3.9,5.2-3.4c4.2,0.9,8.4,1.9,12.5,2.9C291,119.1,292.3,120.5,292.3,122.8z"/>
	<path class="st2" d="M257,206.9c-1.7,0-3.4,0.1-5.1,0c-2.7-0.2-4.4-1.7-4.4-4.5c0.1-2.8,1.7-4.2,4.6-4.2c3.4,0.1,6.8,0,10.2,0
		c2.7,0,4.2,1.5,4.4,4c0.2,2.5-1.3,4.3-3.8,4.6C260.9,207,259,206.8,257,206.9L257,206.9z"/>
</g>
</svg>
