<?xml version="1.0" encoding="utf-8"?>
<!-- Generator: Adobe Illustrator 25.0.0, SVG Export Plug-In . SVG Version: 6.00 Build 0)  -->
<svg version="1.1" id="Layer_1" xmlns="http://www.w3.org/2000/svg" xmlns:xlink="http://www.w3.org/1999/xlink" x="0px" y="0px"
	 viewBox="0 0 511 1023" style="enable-background:new 0 0 511 1023;" xml:space="preserve">
<style type="text/css">
	.st0{fill:#FFFFFF;stroke:#000000;stroke-miterlimit:10;}
	.st1{fill:#EE915A;}
	.st2{fill:#C55053;}
	.st3{fill:#EA723F;}
	.st4{fill:#EA7341;}
</style>
<rect x="133.1" y="65.9" class="st0" width="257.5" height="257.5"/>
<g>
	<path class="st1" d="M260.6,512.4c-13.5-13.7-25.9-27.2-38-40.9c-29.8-33.8-57.9-68.8-83.1-106.2c-22.9-33.9-43.5-69-57.6-107.6
		c-8.9-24.3-14.1-49.2-12.5-75.3c2.5-42.1,17-79.5,44-111.8c30-35.9,68.2-58.3,114.3-65.9c57.9-9.5,110.1,4.2,155.5,41.7
		c30.2,25,50.5,56.7,61.3,94.5c11.8,41.1,8.4,81.2-7,120.8c-16.3,41.9-39.4,80-65.1,116.6c-26.3,37.4-55.2,72.6-86,106.4
		C278.1,493.8,269.5,502.8,260.6,512.4z M387.6,193.7c1.3-68.3-55-126.2-123.8-127.8c-73.6-1.8-130.8,59.6-130.7,127.3
		c0.1,66.7,53.4,126.6,125.9,127.4C334.6,321.4,388.7,259.5,387.6,193.7z"/>
</g>
<g>
	<path class="st2" d="M153.3,157.5c3.1,0.2,4,2.3,4.9,4.8c6.1,18.7,12.2,37.4,18.3,56.1c6.9,21.3,13.9,42.6,20.8,63.9
		c1.8,5.5,1.3,8.2-1.9,9.2c-3.3,1-5.2-0.6-7-6.2c-13-40-26-80-39-120C147.8,160.6,149.5,157.4,153.3,157.5z"/>
	<path class="st2" d="M206.3,291.7c-3.1,0-4.8-1-5.3-3.3c-0.7-2.8,0.6-4.8,3.3-5.8c7.1-2.7,14.1-5.4,21.2-8.1
		c29.4-11.2,58.9-22.4,88.3-33.7c1.4-0.5,2.9-1.2,4.3-1.2c2.3,0,3.9,1.5,4.3,3.7c0.5,2.7-0.9,4.4-3.4,5.4c-10.4,4-20.8,8-31.2,12
		c-26,9.9-51.9,19.8-77.9,29.7C208.5,291,207.1,291.4,206.3,291.7z"/>
	<path class="st2" d="M345.7,207.6c-1.7-0.1-3-0.9-4.3-1.7c-23.7-15.6-47.4-31.2-71.1-46.8c-2.5-1.7-4.9-3.4-3.3-7
		c1.4-3.1,4.3-3.6,8-1.2c15.4,10.1,30.9,20.2,46.3,30.4c8.7,5.7,17.5,11.5,26.2,17.2c2.2,1.4,3.3,3.3,2.5,5.9
		C349.2,206.7,347.6,207.5,345.7,207.6z"/>
	<path class="st2" d="M255.6,142c-14.8,0-29.5,0-44.3,0c-3.3,0-6.3-0.3-6.4-4.5c-0.1-3.1,2-4.7,6.3-4.7c29.5,0,59,0,88.5,0
		c0.1,0,0.3,0,0.4,0c3.3-0.2,6,0.9,6,4.6c0,3.7-2.5,4.7-5.9,4.7C285.4,142,270.5,142,255.6,142z"/>
	<path class="st2" d="M186.4,142c-2.6,0-4.2-0.9-4.8-3.1c-0.7-2.2,0-4.1,1.9-5.4c3.1-2.2,6.3-4.4,9.5-6.6l60-41.7
		c0.5-0.3,0.9-0.6,1.4-0.9c2.5-1.6,4.9-1.4,6.6,1c1.9,2.5,1.1,5-1.3,6.8c-3.2,2.3-6.5,4.6-9.8,6.9c-19.6,13.6-39.3,27.3-59,40.9
		C189.3,140.9,188,142.2,186.4,142z"/>
	<path class="st2" d="M247.9,162.4l-58.1-4.3c-6.2-0.5-12.4-0.9-18.6-1.4c-4.6-0.3-6.6-2.1-6.3-5.3s2.7-4.4,7.2-4.1
		c19.9,1.6,39.8,3.1,59.7,4.6c5.5,0.4,11,0.8,16.5,1.2c3.2,0.3,5.8,1.4,5.4,5.2C253.5,161.8,251,162.6,247.9,162.4z"/>
	<path class="st3" d="M241.5,209.3c0,11.1,0,22.3,0,33.4c0,3.2-0.6,5.9-4.5,5.9s-4.7-2.5-4.7-5.8c0-22.6,0-45.1,0-67.7
		c0-3.4,1.1-5.8,4.8-5.8c3.5,0,4.5,2.5,4.5,5.7C241.5,186.5,241.5,197.9,241.5,209.3z"/>
	<path class="st2" d="M322.3,289.9c-4.4,0-6.2-3-4.9-7.1c3.9-12.6,7.9-25.1,11.9-37.7c2.5-7.8,5-15.7,7.5-23.5
		c1.3-4,3.6-5.6,6.6-4.3c3.5,1.4,3.4,4.1,2.4,7.2c-6.4,20.1-12.9,40.3-19.2,60.4C325.8,287.5,324.8,289.8,322.3,289.9z"/>
	<path class="st2" d="M351.9,186.9c-1.4-0.1-2.6-0.8-3.8-1.5c-16.2-9.6-32.4-19.1-48.7-28.7c-3.6-2.1-4.7-4.7-3.2-7.3
		s4.3-2.9,7.9-0.8c16.4,9.6,32.7,19.2,49.1,28.9c2.6,1.5,4,3.4,3.1,6.4C355.7,186,354,186.8,351.9,186.9z"/>
	<path class="st2" d="M205.9,238c-0.1,2.4-1.1,3.8-2.9,4.5c-1.8,0.7-3.6,0.5-4.9-1.1c-0.9-1.1-1.6-2.3-2.1-3.5
		c-7.1-14.5-14.1-28.9-21.1-43.4c-0.2-0.5-0.5-1-0.7-1.5c-1.2-2.8-0.7-5.2,2.2-6.6c2.8-1.3,5,0,6.2,2.4
		c7.7,15.7,15.3,31.4,22.9,47.2C205.6,236.6,205.8,237.3,205.9,238z"/>
	<path class="st2" d="M274.1,291.7c-8.4,0-16.8-0.1-25.2,0c-3.3,0-5.9-0.8-5.8-4.7c0.1-3.7,2.7-4.6,6-4.6c17.1,0,34.2,0,51.3,0
		c3.4,0,5.9,1.1,5.9,4.8s-2.7,4.6-6,4.5C291.4,291.6,282.8,291.7,274.1,291.7z"/>
	<path class="st2" d="M357.2,169.3c-1,0.1-2.2-0.6-3.4-1.4c-12.6-8.7-25.2-17.3-37.8-26c-3.7-2.5-3.8-6.9-0.3-8.6
		c2-1,3.7-0.4,5.4,0.8c12.7,8.7,25.4,17.4,38.2,26.1c2.1,1.4,3.5,3.2,2.6,5.9C361.3,168.1,359.8,169.3,357.2,169.3z"/>
	<path class="st2" d="M173,161.3c1.7,0,3.2,0.7,4.3,2c9.5,10.5,19,21,28.6,31.5c2.1,2.3,2.8,5.1,0.2,7.3c-2.4,2.1-5,1.5-7.2-1
		c-9.4-10.4-18.8-20.8-28.3-31.2c-1.6-1.7-2.5-3.6-1.5-6C169.7,162.3,171.3,161.3,173,161.3z"/>
	<path class="st2" d="M204.9,275.4c-2.8,0-5.1-3.2-3.7-6.5c5.3-13.1,10.7-26.2,16.1-39.2c1.2-2.9,3.7-3.8,6.4-2.5
		c2.6,1.2,3.2,3.6,2.1,6.3c-5.3,12.8-10.5,25.6-15.8,38.5C209.1,274.1,207.6,275.3,204.9,275.4z"/>
	<path class="st2" d="M320.4,202.4c-0.1,2.6-1.2,4-3,5.1c-11.4,7-22.7,13.9-34.1,20.9c-2.6,1.6-5.1,1.5-6.9-1.1
		c-2-2.9-0.6-5.3,2-6.9c11.5-7.1,22.9-14.2,34.5-21.2C316.4,197.1,320.3,199.2,320.4,202.4z"/>
	<path class="st2" d="M240,120.8c-2.5-0.1-4.4-1.2-4.7-4c-0.4-3.2,1.5-4.9,4.4-5.4c7.3-1.4,14.6-2.8,21.9-4.2
		c5.4-1,10.8-2.1,16.2-3.1c3.1-0.6,6.3-1,7.5,3c1,3.2-0.8,5.2-5.3,6.1c-12.4,2.4-24.8,4.8-37.2,7.2C241.8,120.5,241,120.6,240,120.8
		z"/>
	<path class="st2" d="M279.1,278.3c-3.9,0.2-5.7-1.2-6.1-3.8c-0.4-2.9,1.2-4.7,4-5.3l29-6.6c2.3-0.5,4.5-1.2,6.8-1.5
		c2.7-0.4,4.6,0.9,5.3,3.5c0.7,2.5-0.4,4.7-2.7,5.3C303,272.9,290.5,275.7,279.1,278.3z"/>
	<path class="st4" d="M260.8,169.3c4.4,0,8.8,0,13.2,0c3.2,0,5.1,1.6,5.2,4.7c0.1,2.8-1.9,4.7-4.7,4.7c-8.9,0.1-17.9,0.1-26.8,0
		c-3-0.1-5-1.8-4.7-5.1c0.3-3,2.2-4.3,5.1-4.3L260.8,169.3z"/>
	<path class="st2" d="M223.4,180.8c0,3.2-3.1,5.9-5.8,4.4c-8.9-4.6-17.6-9.6-26.2-14.7c-2.2-1.3-2.5-4-0.9-6.2
		c1.7-2.4,4.1-2.5,6.6-1.2c7.9,4.4,15.8,8.9,23.7,13.3c0.4,0.2,0.7,0.4,1,0.7C222.9,178.1,223.3,179.4,223.4,180.8z"/>
	<path class="st2" d="M330.9,215.5c0.1,1.8-1,3.1-2.5,4.3c-6.8,5.4-13.5,10.8-20.2,16.3c-2.5,2-4.9,2.6-7.3,0.2
		c-2.1-2.1-1.5-5.1,1.4-7.4c6.8-5.6,13.7-11,20.6-16.6c1.7-1.4,3.6-2.1,5.7-0.9C330.1,212.2,330.9,213.5,330.9,215.5z"/>
	<path class="st3" d="M262,248.7c-4.1,0-8.2,0-12.4,0c-3,0-4.8-1.5-4.9-4.4c-0.1-2.9,1.8-4.7,4.6-4.8c8.4-0.1,16.8-0.1,25.2,0
		c2.8,0,4.8,1.8,4.7,4.7c-0.1,3-2,4.6-5.2,4.5C270,248.6,266,248.7,262,248.7z"/>
	<path class="st2" d="M204.8,213.7c-0.1-1.4,0.7-2.6,1.8-3.7c4.4-4.4,8.7-8.8,13-13.2c2.2-2.3,4.8-3.1,7.3-0.8
		c2.6,2.5,1.7,5.1-0.7,7.5c-4.5,4.5-8.9,9-13.4,13.5c-1.5,1.5-3.2,2-5.3,1.2C205.8,217.3,204.9,215.9,204.8,213.7z"/>
	<path class="st2" d="M294.4,185c0,1-0.3,1.9-0.8,2.7c-2.5,3.6-4.9,7.3-7.4,10.8c-1.7,2.3-4,3-6.5,1.5c-2.6-1.6-2.7-4.2-1.3-6.5
		c2.3-3.9,5-7.5,7.6-11.2c1.2-1.8,3.5-2.5,5.5-1.7C293.4,181.3,294.4,182.8,294.4,185z"/>
	<path class="st2" d="M227.4,266.5c-2.7-0.2-4.6-1-5.1-3.4s-0.1-4.7,2.4-5.4c4.8-1.4,9.8-2.7,14.7-3.6c2.4-0.5,4.3,0.9,4.9,3.4
		c0.6,2.5-0.3,4.6-2.7,5.3C236.8,264.2,231.9,265.3,227.4,266.5z"/>
	<path class="st2" d="M292,125.1c0.1,3.1-2.1,5.2-5.4,4.6c-4.6-0.8-9.1-2-13.6-3.2c-2.6-0.7-3.9-2.7-3.3-5.4
		c0.6-2.8,2.6-4.2,5.5-3.6c4.4,0.9,8.8,2,13.2,3.1C290.6,121.2,292,122.7,292,125.1z"/>
	<path class="st3" d="M254.7,213.8c-1.8,0-3.6,0.1-5.4,0c-2.8-0.2-4.7-1.8-4.6-4.8c0.1-2.9,1.8-4.4,4.8-4.4c3.6,0.1,7.1,0,10.7,0
		c2.9,0,4.4,1.6,4.6,4.2c0.2,2.6-1.3,4.5-4,4.9C258.9,213.9,256.8,213.7,254.7,213.8L254.7,213.8z"/>
</g>
</svg>
