<?xml version="1.0" encoding="utf-8"?>
<!-- Generator: Adobe Illustrator 25.0.0, SVG Export Plug-In . SVG Version: 6.00 Build 0)  -->
<svg version="1.1" id="Layer_1" xmlns="http://www.w3.org/2000/svg" xmlns:xlink="http://www.w3.org/1999/xlink" x="0px" y="0px"
	 viewBox="0 0 511 1023" style="enable-background:new 0 0 511 1023;" xml:space="preserve">
<style type="text/css">
	.st0{fill:#E75626;}
	.st1{fill:#C55053;}
	.st2{fill:#EA723F;}
	.st3{fill:#EA7341;}
</style>
<g>
	<path class="st0" d="M257.1,512.8c-13.8-13.9-26-27.3-38-40.9c-33.2-37.7-64.4-76.8-91.7-119c-22.2-34.3-42.7-69.7-53.8-109.3
		c-21.5-77-0.3-142.2,58.1-195.1c38.7-35.1,85.8-49.2,137.8-46.3c85.9,4.9,159.5,70.5,175.1,155c7.3,39.6,0.8,77.1-14.6,113.6
		c-17,40.3-39.8,77.1-65.2,112.5c-31.7,44.2-66.8,85.6-104.4,124.9C259.3,509.5,258.4,510.9,257.1,512.8z M383.6,193.5
		c1.1-67.6-54.5-126-124-127.6c-72.9-1.7-130.9,58.8-130.4,127.5c0.5,69.7,56.8,127.2,125.6,127.2
		C327.1,320.7,383.6,264.9,383.6,193.5z"/>
</g>
<g>
	<path class="st1" d="M153.6,155.5c3.1,0.2,4.1,2.4,4.9,4.9c6.1,18.8,12.3,37.6,18.4,56.4c7,21.4,14,42.9,21,64.3
		c1.8,5.6,1.3,8.3-1.9,9.3c-3.3,1-5.2-0.6-7-6.2c-13.1-40.3-26.2-80.5-39.3-120.8C148.1,158.6,149.8,155.4,153.6,155.5z"/>
	<path class="st1" d="M206.9,290.5c-3.1,0-4.8-1.1-5.4-3.3c-0.7-2.9,0.6-4.8,3.3-5.9c7.1-2.7,14.2-5.5,21.3-8.2
		c29.6-11.3,59.2-22.6,88.9-33.9c1.4-0.5,2.9-1.2,4.4-1.2c2.3,0,3.9,1.5,4.3,3.8c0.5,2.7-0.9,4.5-3.4,5.4
		c-10.5,4-20.9,8.1-31.4,12.1c-26.1,10-52.2,19.9-78.4,29.9C209.2,289.8,207.8,290.3,206.9,290.5z"/>
	<path class="st1" d="M347.2,205.9c-1.7-0.1-3-0.9-4.3-1.8c-23.9-15.7-47.7-31.4-71.6-47.1c-2.5-1.7-5-3.4-3.3-7
		c1.4-3.1,4.3-3.6,8-1.2c15.5,10.2,31.1,20.4,46.6,30.6c8.8,5.8,17.6,11.6,26.4,17.4c2.2,1.5,3.3,3.3,2.5,6
		C350.8,205,349.2,205.8,347.2,205.9z"/>
	<path class="st1" d="M256.6,139.9c-14.9,0-29.7,0-44.6,0c-3.3,0-6.3-0.3-6.5-4.5c-0.1-3.2,2-4.7,6.4-4.7c29.7,0,59.4,0,89.1,0
		c0.1,0,0.3,0,0.4,0c3.4-0.2,6,0.9,6.1,4.6c0,3.7-2.5,4.7-5.9,4.7C286.6,139.8,271.6,139.9,256.6,139.9z"/>
	<path class="st1" d="M187,139.9c-2.6,0-4.2-0.9-4.8-3.1c-0.7-2.3,0-4.1,1.9-5.4c3.2-2.2,6.4-4.4,9.5-6.6L254,82.7
		c0.5-0.3,0.9-0.6,1.4-0.9c2.5-1.6,4.9-1.4,6.6,1c1.9,2.6,1.2,5-1.3,6.8c-3.3,2.4-6.6,4.6-9.9,6.9c-19.8,13.7-39.6,27.5-59.4,41.2
		C189.9,138.7,188.5,140,187,139.9z"/>
	<path class="st1" d="M248.8,160.4l-58.4-4.4c-6.2-0.5-12.4-0.9-18.7-1.4c-4.6-0.3-6.6-2.1-6.3-5.4c0.3-3.2,2.7-4.5,7.3-4.1
		c20,1.6,40.1,3.1,60.1,4.6c5.5,0.4,11.1,0.8,16.6,1.2c3.2,0.3,5.8,1.4,5.5,5.3C254.5,159.8,251.9,160.6,248.8,160.4z"/>
	<path class="st2" d="M242.4,207.6c0,11.2,0,22.4,0,33.6c0,3.2-0.6,5.9-4.6,6c-3.9,0-4.8-2.5-4.7-5.8c0-22.7,0-45.4,0-68.1
		c0-3.5,1.2-5.9,4.8-5.9c3.5,0,4.5,2.5,4.5,5.7C242.4,184.6,242.4,196.1,242.4,207.6z"/>
	<path class="st1" d="M323.8,288.7c-4.4,0-6.2-3-4.9-7.2c4-12.7,8-25.3,12-37.9c2.5-7.9,5-15.8,7.6-23.7c1.3-4,3.6-5.6,6.6-4.4
		c3.5,1.4,3.4,4.1,2.4,7.3c-6.5,20.3-12.9,40.5-19.3,60.8C327.2,286.3,326.2,288.6,323.8,288.7z"/>
	<path class="st1" d="M353.5,185.1c-1.4-0.1-2.6-0.8-3.8-1.5c-16.3-9.6-32.7-19.3-49-28.9c-3.6-2.1-4.7-4.8-3.2-7.3
		c1.5-2.6,4.4-2.9,8-0.8c16.5,9.7,32.9,19.4,49.4,29c2.6,1.5,4,3.4,3.2,6.4C357.4,184.2,355.6,184.9,353.5,185.1z"/>
	<path class="st1" d="M206.5,236.5c-0.1,2.4-1.1,3.8-2.9,4.5s-3.6,0.5-4.9-1.1c-0.9-1.1-1.6-2.3-2.1-3.5
		c-7.1-14.6-14.2-29.1-21.3-43.7c-0.2-0.5-0.5-1-0.7-1.5c-1.2-2.8-0.7-5.2,2.2-6.6c2.8-1.3,5,0,6.2,2.4c7.7,15.8,15.4,31.6,23,47.5
		C206.3,235.1,206.4,235.8,206.5,236.5z"/>
	<path class="st1" d="M275.2,290.5c-8.5,0-16.9-0.1-25.4,0c-3.3,0-6-0.8-5.9-4.7c0.1-3.8,2.7-4.6,6.1-4.6c17.2,0,34.4,0,51.6,0
		c3.4,0,5.9,1.1,5.9,4.8c0,3.7-2.7,4.6-6.1,4.5C292.7,290.5,283.9,290.5,275.2,290.5z"/>
	<path class="st1" d="M358.9,167.4c-1.1,0.1-2.2-0.6-3.4-1.4c-12.7-8.7-25.4-17.4-38-26.1c-3.7-2.5-3.8-6.9-0.3-8.7
		c2-1,3.7-0.4,5.4,0.8c12.8,8.8,25.6,17.6,38.4,26.3c2.1,1.4,3.5,3.3,2.7,5.9C363,166.2,361.5,167.3,358.9,167.4z"/>
	<path class="st1" d="M173.5,159.3c1.7,0,3.2,0.7,4.3,2c9.6,10.6,19.2,21.2,28.8,31.7c2.1,2.3,2.8,5.1,0.2,7.3c-2.4,2.1-5,1.5-7.2-1
		c-9.5-10.5-18.9-21-28.5-31.4c-1.6-1.8-2.6-3.6-1.5-6C170.2,160.3,171.7,159.3,173.5,159.3z"/>
	<path class="st1" d="M205.6,274.1c-2.8,0-5.1-3.2-3.8-6.5c5.3-13.2,10.7-26.3,16.2-39.5c1.2-3,3.7-3.8,6.5-2.5
		c2.6,1.2,3.2,3.6,2.1,6.3c-5.3,12.9-10.6,25.8-15.9,38.7C209.8,272.8,208.3,274,205.6,274.1z"/>
	<path class="st1" d="M321.8,200.7c-0.1,2.6-1.3,4-3,5.1c-11.4,7-22.9,14-34.3,21.1c-2.6,1.6-5.2,1.5-6.9-1.1c-2-2.9-0.7-5.3,2-7
		c11.5-7.1,23.1-14.3,34.7-21.3C317.8,195.4,321.8,197.4,321.8,200.7z"/>
	<path class="st1" d="M240.9,118.5c-2.5-0.1-4.4-1.2-4.8-4c-0.4-3.2,1.5-4.9,4.5-5.5c7.3-1.4,14.7-2.8,22-4.2
		c5.4-1,10.9-2.1,16.3-3.1c3.1-0.6,6.3-1,7.5,3c1,3.2-0.8,5.3-5.4,6.2c-12.5,2.5-25,4.8-37.5,7.2
		C242.7,118.3,241.9,118.4,240.9,118.5z"/>
	<path class="st1" d="M280.2,277c-3.9,0.2-5.7-1.2-6.1-3.8c-0.4-2.9,1.2-4.7,4-5.3l29.2-6.6c2.3-0.5,4.5-1.2,6.9-1.5
		c2.7-0.4,4.6,0.9,5.4,3.5c0.7,2.5-0.4,4.8-2.8,5.3C304.3,271.6,291.7,274.4,280.2,277z"/>
	<path class="st3" d="M261.9,167.3c4.4,0,8.9,0,13.3,0c3.2,0,5.1,1.6,5.2,4.7c0.1,2.9-1.9,4.7-4.8,4.8c-9,0.1-18,0.1-27,0
		c-3-0.1-5-1.8-4.7-5.1c0.3-3,2.2-4.3,5.1-4.3L261.9,167.3z"/>
	<path class="st1" d="M224.1,179c0,3.2-3.1,5.9-5.8,4.5c-8.9-4.7-17.7-9.6-26.4-14.8c-2.3-1.3-2.5-4-1-6.2c1.7-2.4,4.1-2.6,6.6-1.2
		c8,4.4,15.9,8.9,23.9,13.4c0.4,0.2,0.7,0.4,1,0.7C223.7,176.2,224.1,177.5,224.1,179z"/>
	<path class="st1" d="M332.4,213.8c0.1,1.9-1,3.2-2.5,4.3c-6.8,5.4-13.6,10.9-20.4,16.4c-2.5,2-5,2.6-7.4,0.2
		c-2.1-2.1-1.5-5.1,1.4-7.5c6.9-5.6,13.8-11.1,20.7-16.7c1.8-1.4,3.6-2.1,5.7-0.9C331.6,210.5,332.4,211.8,332.4,213.8z"/>
	<path class="st2" d="M263,247.3c-4.2,0-8.3,0-12.5,0c-3,0-4.8-1.5-4.9-4.4c-0.1-2.9,1.8-4.7,4.6-4.8c8.4-0.1,16.9-0.1,25.3,0
		c2.9,0,4.8,1.8,4.7,4.7c-0.1,3.1-2,4.6-5.3,4.5C271.1,247.2,267,247.3,263,247.3z"/>
	<path class="st1" d="M205.5,212c-0.1-1.4,0.7-2.6,1.8-3.7c4.4-4.4,8.8-8.9,13.1-13.3c2.2-2.3,4.9-3.1,7.3-0.8
		c2.6,2.5,1.8,5.2-0.7,7.6c-4.5,4.5-9,9.1-13.5,13.6c-1.5,1.5-3.3,2.1-5.3,1.2C206.5,215.7,205.5,214.3,205.5,212z"/>
	<path class="st1" d="M295.6,183.2c0,1-0.3,1.9-0.8,2.7c-2.5,3.6-4.9,7.3-7.5,10.9c-1.7,2.4-4,3-6.5,1.5c-2.6-1.6-2.7-4.2-1.3-6.5
		c2.3-3.9,5-7.6,7.6-11.3c1.2-1.8,3.5-2.5,5.5-1.7C294.7,179.5,295.7,181,295.6,183.2z"/>
	<path class="st1" d="M228.2,265.1c-2.8-0.2-4.6-1-5.1-3.4c-0.5-2.4-0.1-4.7,2.4-5.5c4.9-1.4,9.8-2.7,14.8-3.6
		c2.4-0.5,4.3,1,4.9,3.5c0.6,2.5-0.3,4.6-2.7,5.3C237.7,262.9,232.7,264,228.2,265.1z"/>
	<path class="st1" d="M293.2,122.9c0.1,3.1-2.1,5.2-5.4,4.6c-4.6-0.8-9.1-2-13.7-3.2c-2.6-0.7-3.9-2.7-3.3-5.4
		c0.6-2.9,2.7-4.2,5.6-3.6c4.5,0.9,8.9,2,13.3,3.1C291.8,119,293.2,120.4,293.2,122.9z"/>
	<path class="st2" d="M255.7,212.1c-1.8,0-3.6,0.1-5.4,0c-2.9-0.2-4.7-1.8-4.6-4.8c0.1-3,1.8-4.5,4.9-4.4c3.6,0.1,7.2,0,10.8,0
		c2.9,0,4.4,1.6,4.6,4.2c0.2,2.7-1.3,4.5-4,4.9C259.9,212.3,257.8,212.1,255.7,212.1L255.7,212.1z"/>
</g>
</svg>
