<?xml version="1.0" encoding="utf-8"?>
<!-- Generator: Adobe Illustrator 25.0.0, SVG Export Plug-In . SVG Version: 6.00 Build 0)  -->
<svg version="1.1" id="Layer_1" xmlns="http://www.w3.org/2000/svg" xmlns:xlink="http://www.w3.org/1999/xlink" x="0px" y="0px"
	 viewBox="0 0 511 511" style="enable-background:new 0 0 511 511;" xml:space="preserve">
<style type="text/css">
	.st0{fill:#303030;}
	.st1{fill:#C55053;}
	.st2{fill:#EA723F;}
	.st3{fill:#EA7341;}
</style>
<g>
	<path class="st0" d="M254,511c-7.6-9.6-16.6-18-24.8-27.2c-41-45.7-79.4-93.3-111.6-145.7C97.8,305.8,80,272.5,70.8,235.4
		c-15.3-61.5-1-116.6,38.7-165c31.5-38.5,72.9-60.7,122.3-67C331.4-9.2,419.5,55.3,442.1,148c10.3,42.5,4.2,83.1-12.6,122.9
		c-18,42.6-42.5,81.4-69.6,118.6c-30.6,42.1-64.3,81.6-100.3,119.1c-0.7,0.7-1.6,1.2-1.6,2.4C256.7,511,255.3,511,254,511z
		 M383.1,193.9c1.3-67.7-54.1-126.1-123.7-128C186.2,64,128,124.8,128.6,193.5c0.6,69.7,56.9,127.1,125.7,127.1
		C326.4,320.6,383.1,264.8,383.1,193.9z"/>
</g>
<g>
	<path class="st1" d="M154,150.8c3,0.2,4,2.3,4.8,4.8c6,18.5,12.1,37,18.1,55.6c6.9,21.1,13.8,42.2,20.6,63.3
		c1.8,5.5,1.3,8.1-1.9,9.1c-3.3,1-5.1-0.6-6.9-6.1c-12.9-39.6-25.8-79.3-38.7-118.9C148.5,153.9,150.2,150.7,154,150.8z"/>
	<path class="st1" d="M206.4,283.7c-3,0-4.7-1-5.3-3.3c-0.7-2.8,0.6-4.7,3.3-5.8c7-2.7,14-5.4,21-8.1c29.2-11.1,58.3-22.2,87.5-33.3
		c1.4-0.5,2.9-1.1,4.3-1.1c2.3,0,3.9,1.5,4.3,3.7c0.5,2.6-0.9,4.4-3.4,5.4c-10.3,4-20.6,8-30.9,11.9c-25.7,9.8-51.4,19.6-77.2,29.4
		C208.7,283,207.3,283.4,206.4,283.7z"/>
	<path class="st1" d="M344.6,200.4c-1.7-0.1-3-0.9-4.3-1.7c-23.5-15.5-47-30.9-70.5-46.4c-2.5-1.6-4.9-3.4-3.3-6.9
		c1.4-3.1,4.3-3.5,7.9-1.2c15.3,10,30.6,20.1,45.9,30.1c8.7,5.7,17.3,11.4,26,17.1c2.2,1.4,3.3,3.3,2.5,5.9
		C348.1,199.5,346.5,200.3,344.6,200.4z"/>
	<path class="st1" d="M255.3,135.4c-14.6,0-29.2,0-43.9,0c-3.3,0-6.2-0.3-6.4-4.5c-0.1-3.1,2-4.7,6.3-4.7c29.2,0,58.5,0,87.7,0
		c0.1,0,0.3,0,0.4,0c3.3-0.2,5.9,0.9,6,4.6c0,3.6-2.5,4.6-5.9,4.6C284.8,135.4,270.1,135.4,255.3,135.4z"/>
	<path class="st1" d="M186.8,135.4c-2.6,0-4.1-0.9-4.7-3.1c-0.7-2.2,0-4,1.8-5.4c3.1-2.2,6.3-4.4,9.4-6.5l59.5-41.3
		c0.5-0.3,0.9-0.6,1.4-0.9c2.4-1.6,4.8-1.4,6.5,0.9c1.8,2.5,1.1,5-1.3,6.7c-3.2,2.3-6.5,4.6-9.7,6.8c-19.5,13.5-39,27-58.5,40.6
		C189.7,134.3,188.3,135.6,186.8,135.4z"/>
	<path class="st1" d="M247.7,155.6l-57.5-4.3c-6.1-0.5-12.3-0.9-18.4-1.4c-4.5-0.3-6.5-2-6.2-5.3c0.3-3.2,2.7-4.4,7.2-4
		c19.7,1.6,39.4,3.1,59.2,4.5c5.4,0.4,10.9,0.7,16.3,1.2c3.2,0.3,5.7,1.4,5.4,5.2C253.3,155,250.7,155.8,247.7,155.6z"/>
	<path class="st2" d="M241.4,202.1c0,11,0,22.1,0,33.1c0,3.2-0.6,5.9-4.5,5.9c-3.8,0-4.7-2.4-4.7-5.7c0-22.3,0-44.7,0-67.1
		c0-3.4,1.1-5.8,4.7-5.8c3.4,0,4.5,2.5,4.5,5.6C241.3,179.5,241.4,190.8,241.4,202.1z"/>
	<path class="st1" d="M321.4,282c-4.4,0-6.1-3-4.9-7.1c3.9-12.5,7.8-24.9,11.8-37.4c2.5-7.8,5-15.5,7.5-23.3c1.3-4,3.5-5.5,6.5-4.3
		c3.5,1.4,3.3,4.1,2.3,7.1c-6.4,19.9-12.7,39.9-19,59.9C324.8,279.5,323.9,281.9,321.4,282z"/>
	<path class="st1" d="M350.7,179.9c-1.4-0.1-2.6-0.8-3.8-1.5c-16.1-9.5-32.1-19-48.2-28.4c-3.5-2.1-4.7-4.7-3.2-7.2s4.3-2.9,7.8-0.8
		c16.2,9.5,32.4,19.1,48.6,28.6c2.5,1.5,4,3.4,3.1,6.3C354.5,179,352.8,179.8,350.7,179.9z"/>
	<path class="st1" d="M206.1,230.5c-0.1,2.4-1.1,3.8-2.9,4.4c-1.8,0.7-3.6,0.5-4.9-1.1c-0.8-1.1-1.6-2.2-2.1-3.5
		c-7-14.3-14-28.7-20.9-43c-0.2-0.5-0.5-1-0.7-1.5c-1.2-2.8-0.7-5.1,2.2-6.5c2.8-1.3,4.9,0,6.1,2.4c7.6,15.5,15.1,31.1,22.7,46.7
		C205.8,229.2,206,229.8,206.1,230.5z"/>
	<path class="st1" d="M273.6,283.7c-8.3,0-16.7,0-25,0c-3.3,0-5.9-0.8-5.8-4.6c0.1-3.7,2.7-4.6,6-4.6c17,0,33.9,0,50.8,0
		c3.4,0,5.9,1.1,5.8,4.7c0,3.6-2.7,4.5-6,4.5C290.8,283.7,282.2,283.7,273.6,283.7z"/>
	<path class="st1" d="M356,162.5c-1,0.1-2.2-0.6-3.3-1.4c-12.5-8.6-25-17.2-37.5-25.7c-3.6-2.5-3.7-6.8-0.3-8.5
		c1.9-1,3.6-0.4,5.3,0.8c12.6,8.7,25.2,17.3,37.8,25.9c2.1,1.4,3.5,3.2,2.6,5.9C360.1,161.3,358.6,162.4,356,162.5z"/>
	<path class="st1" d="M173.5,154.5c1.6,0,3.2,0.7,4.2,2c9.4,10.4,18.9,20.8,28.3,31.2c2.1,2.3,2.8,5,0.2,7.2c-2.4,2.1-4.9,1.5-7.1-1
		c-9.3-10.3-18.7-20.7-28.1-30.9c-1.6-1.7-2.5-3.6-1.5-5.9C170.3,155.5,171.8,154.5,173.5,154.5z"/>
	<path class="st1" d="M205.1,267.6c-2.8,0-5-3.2-3.7-6.4c5.2-13,10.6-25.9,16-38.9c1.2-2.9,3.7-3.7,6.4-2.5c2.6,1.2,3.1,3.5,2,6.2
		c-5.2,12.7-10.4,25.4-15.6,38.1C209.3,266.3,207.8,267.4,205.1,267.6z"/>
	<path class="st1" d="M319.5,195.3c-0.1,2.6-1.2,4-3,5c-11.3,6.9-22.5,13.8-33.8,20.7c-2.6,1.6-5.1,1.5-6.8-1.1
		c-1.9-2.9-0.6-5.2,2-6.9c11.4-7,22.7-14.1,34.2-21C315.5,190,319.5,192.1,319.5,195.3z"/>
	<path class="st1" d="M239.9,114.4c-2.4-0.1-4.4-1.2-4.7-4c-0.4-3.1,1.5-4.8,4.4-5.4c7.2-1.4,14.4-2.8,21.7-4.2
		c5.4-1,10.7-2.1,16.1-3.1c3.1-0.6,6.2-1,7.4,2.9c1,3.1-0.8,5.2-5.3,6.1c-12.3,2.4-24.6,4.8-36.9,7.1
		C241.7,114.1,240.9,114.2,239.9,114.4z"/>
	<path class="st1" d="M278.6,270.4c-3.8,0.2-5.6-1.2-6-3.8c-0.4-2.9,1.2-4.6,4-5.3l28.7-6.5c2.3-0.5,4.5-1.2,6.8-1.5
		c2.7-0.4,4.6,0.9,5.3,3.4c0.7,2.5-0.4,4.7-2.7,5.3C302.3,265.1,289.9,267.8,278.6,270.4z"/>
	<path class="st3" d="M260.5,162.4c4.4,0,8.7,0,13.1,0c3.1,0,5.1,1.6,5.1,4.6c0,2.8-1.9,4.6-4.7,4.7c-8.9,0.1-17.7,0.1-26.6,0
		c-2.9-0.1-4.9-1.8-4.6-5c0.3-2.9,2.2-4.2,5-4.2L260.5,162.4z"/>
	<path class="st1" d="M223.4,173.9c0,3.1-3.1,5.8-5.8,4.4c-8.8-4.6-17.4-9.5-26-14.5c-2.2-1.3-2.5-3.9-0.9-6.1
		c1.7-2.4,4.1-2.5,6.5-1.2c7.8,4.4,15.7,8.8,23.5,13.2c0.4,0.2,0.7,0.4,1,0.7C222.9,171.2,223.3,172.4,223.4,173.9z"/>
	<path class="st1" d="M329.9,208.2c0.1,1.8-1,3.1-2.4,4.3c-6.7,5.4-13.4,10.7-20.1,16.1c-2.4,2-4.9,2.5-7.3,0.1
		c-2-2.1-1.5-5,1.4-7.4c6.8-5.5,13.6-10.9,20.4-16.4c1.7-1.4,3.5-2,5.6-0.9C329.1,204.9,329.9,206.3,329.9,208.2z"/>
	<path class="st2" d="M261.7,241.1c-4.1,0-8.2,0-12.3,0c-3,0-4.7-1.5-4.8-4.3c-0.1-2.9,1.7-4.7,4.6-4.7c8.3-0.1,16.6-0.1,24.9,0
		c2.8,0,4.7,1.8,4.6,4.7c-0.1,3-2,4.5-5.2,4.4C269.6,241,265.6,241.1,261.7,241.1z"/>
	<path class="st1" d="M205,206.4c-0.1-1.4,0.7-2.5,1.8-3.7c4.3-4.4,8.6-8.7,12.9-13.1c2.2-2.3,4.8-3.1,7.2-0.8
		c2.6,2.5,1.7,5.1-0.7,7.5c-4.5,4.4-8.8,8.9-13.3,13.4c-1.5,1.5-3.2,2-5.2,1.2C206,210,205.1,208.7,205,206.4z"/>
	<path class="st1" d="M293.8,178c0,1-0.3,1.9-0.8,2.7c-2.5,3.6-4.8,7.2-7.4,10.7c-1.7,2.3-4,2.9-6.4,1.4c-2.6-1.6-2.7-4.2-1.3-6.4
		c2.3-3.8,4.9-7.5,7.5-11.1c1.2-1.8,3.4-2.5,5.4-1.7C292.8,174.4,293.8,175.9,293.8,178z"/>
	<path class="st1" d="M227.4,258.7c-2.7-0.2-4.5-1-5-3.4c-0.5-2.3-0.1-4.6,2.4-5.4c4.8-1.4,9.7-2.6,14.6-3.6
		c2.4-0.5,4.3,0.9,4.8,3.4s-0.3,4.5-2.7,5.2C236.7,256.5,231.8,257.6,227.4,258.7z"/>
	<path class="st1" d="M291.4,118.7c0.1,3.1-2.1,5.1-5.3,4.5c-4.5-0.8-9-2-13.5-3.1c-2.6-0.7-3.9-2.7-3.3-5.3
		c0.6-2.8,2.6-4.1,5.5-3.5c4.4,0.9,8.7,1.9,13.1,3.1C290,114.8,291.4,116.3,291.4,118.7z"/>
	<path class="st2" d="M254.4,206.5c-1.8,0-3.6,0.1-5.3,0c-2.8-0.2-4.6-1.8-4.6-4.7c0.1-2.9,1.8-4.4,4.8-4.4c3.5,0.1,7.1,0,10.6,0
		c2.9,0,4.4,1.6,4.6,4.2c0.2,2.6-1.3,4.5-4,4.8C258.6,206.7,256.5,206.5,254.4,206.5L254.4,206.5z"/>
</g>
</svg>
